<mxfile host="app.diagrams.net" modified="2020-10-27T18:15:46.147Z" agent="5.0 (Windows NT 10.0; Win64; x64) AppleWebKit/537.36 (KHTML, like Gecko) Chrome/86.0.4240.111 Safari/537.36 Edg/86.0.622.51" etag="CJpQ4E0PH2Bvr2zvzOee" version="13.8.5" type="github">
  <diagram id="x4VcSk3GQQeyTvw1p3uz" name="Page-1">
    <mxGraphModel dx="723" dy="375" grid="1" gridSize="10" guides="1" tooltips="1" connect="1" arrows="1" fold="1" page="1" pageScale="1" pageWidth="827" pageHeight="1169" math="0" shadow="0">
      <root>
        <mxCell id="0" />
        <mxCell id="1" parent="0" />
        <mxCell id="ddTO6_FposIUlyiPp3jF-1" value="Imobiliaria&lt;br&gt;" style="text;strokeColor=none;fillColor=none;html=1;fontSize=24;fontStyle=1;verticalAlign=middle;align=center;" vertex="1" parent="1">
          <mxGeometry x="150" y="60" width="130" height="30" as="geometry" />
        </mxCell>
        <mxCell id="ddTO6_FposIUlyiPp3jF-2" value="" style="shape=table;html=1;whiteSpace=wrap;startSize=0;container=1;collapsible=0;childLayout=tableLayout;strokeWidth=1;" vertex="1" parent="1">
          <mxGeometry x="150" y="90" width="680" height="160" as="geometry" />
        </mxCell>
        <mxCell id="ddTO6_FposIUlyiPp3jF-3" style="shape=partialRectangle;html=1;whiteSpace=wrap;collapsible=0;dropTarget=0;pointerEvents=0;fillColor=none;top=0;left=0;bottom=0;right=0;points=[[0,0.5],[1,0.5]];portConstraint=eastwest;" vertex="1" parent="ddTO6_FposIUlyiPp3jF-2">
          <mxGeometry width="680" height="27" as="geometry" />
        </mxCell>
        <mxCell id="ddTO6_FposIUlyiPp3jF-4" value="&lt;b&gt;&lt;u&gt;CNPJ&lt;/u&gt;&lt;/b&gt;" style="shape=partialRectangle;html=1;whiteSpace=wrap;connectable=0;fillColor=none;top=0;left=0;bottom=0;right=0;overflow=hidden;" vertex="1" parent="ddTO6_FposIUlyiPp3jF-3">
          <mxGeometry width="114" height="27" as="geometry" />
        </mxCell>
        <mxCell id="ddTO6_FposIUlyiPp3jF-5" value="RAZAO_SOCIAL" style="shape=partialRectangle;html=1;whiteSpace=wrap;connectable=0;fillColor=none;top=0;left=0;bottom=0;right=0;overflow=hidden;" vertex="1" parent="ddTO6_FposIUlyiPp3jF-3">
          <mxGeometry x="114" width="113" height="27" as="geometry" />
        </mxCell>
        <mxCell id="ddTO6_FposIUlyiPp3jF-6" value="FANTASIA" style="shape=partialRectangle;html=1;whiteSpace=wrap;connectable=0;fillColor=none;top=0;left=0;bottom=0;right=0;overflow=hidden;" vertex="1" parent="ddTO6_FposIUlyiPp3jF-3">
          <mxGeometry x="227" width="115" height="27" as="geometry" />
        </mxCell>
        <mxCell id="ddTO6_FposIUlyiPp3jF-7" value="ENDERECO" style="shape=partialRectangle;html=1;whiteSpace=wrap;connectable=0;fillColor=none;top=0;left=0;bottom=0;right=0;overflow=hidden;" vertex="1" parent="ddTO6_FposIUlyiPp3jF-3">
          <mxGeometry x="342" width="113" height="27" as="geometry" />
        </mxCell>
        <mxCell id="ddTO6_FposIUlyiPp3jF-8" value="TELEFONE" style="shape=partialRectangle;html=1;whiteSpace=wrap;connectable=0;fillColor=none;top=0;left=0;bottom=0;right=0;overflow=hidden;" vertex="1" parent="ddTO6_FposIUlyiPp3jF-3">
          <mxGeometry x="455" width="113" height="27" as="geometry" />
        </mxCell>
        <mxCell id="ddTO6_FposIUlyiPp3jF-332" value="F_CPF" style="shape=partialRectangle;html=1;whiteSpace=wrap;connectable=0;fillColor=none;top=0;left=0;bottom=0;right=0;overflow=hidden;" vertex="1" parent="ddTO6_FposIUlyiPp3jF-3">
          <mxGeometry x="568" width="112" height="27" as="geometry" />
        </mxCell>
        <mxCell id="ddTO6_FposIUlyiPp3jF-9" value="" style="shape=partialRectangle;html=1;whiteSpace=wrap;collapsible=0;dropTarget=0;pointerEvents=0;fillColor=none;top=0;left=0;bottom=0;right=0;points=[[0,0.5],[1,0.5]];portConstraint=eastwest;" vertex="1" parent="ddTO6_FposIUlyiPp3jF-2">
          <mxGeometry y="27" width="680" height="26" as="geometry" />
        </mxCell>
        <mxCell id="ddTO6_FposIUlyiPp3jF-10" style="shape=partialRectangle;html=1;whiteSpace=wrap;connectable=0;fillColor=none;top=0;left=0;bottom=0;right=0;overflow=hidden;" vertex="1" parent="ddTO6_FposIUlyiPp3jF-9">
          <mxGeometry width="114" height="26" as="geometry" />
        </mxCell>
        <mxCell id="ddTO6_FposIUlyiPp3jF-11" style="shape=partialRectangle;html=1;whiteSpace=wrap;connectable=0;fillColor=none;top=0;left=0;bottom=0;right=0;overflow=hidden;" vertex="1" parent="ddTO6_FposIUlyiPp3jF-9">
          <mxGeometry x="114" width="113" height="26" as="geometry" />
        </mxCell>
        <mxCell id="ddTO6_FposIUlyiPp3jF-12" style="shape=partialRectangle;html=1;whiteSpace=wrap;connectable=0;fillColor=none;top=0;left=0;bottom=0;right=0;overflow=hidden;" vertex="1" parent="ddTO6_FposIUlyiPp3jF-9">
          <mxGeometry x="227" width="115" height="26" as="geometry" />
        </mxCell>
        <mxCell id="ddTO6_FposIUlyiPp3jF-13" value="" style="shape=partialRectangle;html=1;whiteSpace=wrap;connectable=0;fillColor=none;top=0;left=0;bottom=0;right=0;overflow=hidden;" vertex="1" parent="ddTO6_FposIUlyiPp3jF-9">
          <mxGeometry x="342" width="113" height="26" as="geometry" />
        </mxCell>
        <mxCell id="ddTO6_FposIUlyiPp3jF-14" value="" style="shape=partialRectangle;html=1;whiteSpace=wrap;connectable=0;fillColor=none;top=0;left=0;bottom=0;right=0;overflow=hidden;" vertex="1" parent="ddTO6_FposIUlyiPp3jF-9">
          <mxGeometry x="455" width="113" height="26" as="geometry" />
        </mxCell>
        <mxCell id="ddTO6_FposIUlyiPp3jF-333" style="shape=partialRectangle;html=1;whiteSpace=wrap;connectable=0;fillColor=none;top=0;left=0;bottom=0;right=0;overflow=hidden;" vertex="1" parent="ddTO6_FposIUlyiPp3jF-9">
          <mxGeometry x="568" width="112" height="26" as="geometry" />
        </mxCell>
        <mxCell id="ddTO6_FposIUlyiPp3jF-15" style="shape=partialRectangle;html=1;whiteSpace=wrap;collapsible=0;dropTarget=0;pointerEvents=0;fillColor=none;top=0;left=0;bottom=0;right=0;points=[[0,0.5],[1,0.5]];portConstraint=eastwest;" vertex="1" parent="ddTO6_FposIUlyiPp3jF-2">
          <mxGeometry y="53" width="680" height="27" as="geometry" />
        </mxCell>
        <mxCell id="ddTO6_FposIUlyiPp3jF-16" style="shape=partialRectangle;html=1;whiteSpace=wrap;connectable=0;fillColor=none;top=0;left=0;bottom=0;right=0;overflow=hidden;" vertex="1" parent="ddTO6_FposIUlyiPp3jF-15">
          <mxGeometry width="114" height="27" as="geometry" />
        </mxCell>
        <mxCell id="ddTO6_FposIUlyiPp3jF-17" style="shape=partialRectangle;html=1;whiteSpace=wrap;connectable=0;fillColor=none;top=0;left=0;bottom=0;right=0;overflow=hidden;" vertex="1" parent="ddTO6_FposIUlyiPp3jF-15">
          <mxGeometry x="114" width="113" height="27" as="geometry" />
        </mxCell>
        <mxCell id="ddTO6_FposIUlyiPp3jF-18" style="shape=partialRectangle;html=1;whiteSpace=wrap;connectable=0;fillColor=none;top=0;left=0;bottom=0;right=0;overflow=hidden;" vertex="1" parent="ddTO6_FposIUlyiPp3jF-15">
          <mxGeometry x="227" width="115" height="27" as="geometry" />
        </mxCell>
        <mxCell id="ddTO6_FposIUlyiPp3jF-19" style="shape=partialRectangle;html=1;whiteSpace=wrap;connectable=0;fillColor=none;top=0;left=0;bottom=0;right=0;overflow=hidden;" vertex="1" parent="ddTO6_FposIUlyiPp3jF-15">
          <mxGeometry x="342" width="113" height="27" as="geometry" />
        </mxCell>
        <mxCell id="ddTO6_FposIUlyiPp3jF-20" style="shape=partialRectangle;html=1;whiteSpace=wrap;connectable=0;fillColor=none;top=0;left=0;bottom=0;right=0;overflow=hidden;" vertex="1" parent="ddTO6_FposIUlyiPp3jF-15">
          <mxGeometry x="455" width="113" height="27" as="geometry" />
        </mxCell>
        <mxCell id="ddTO6_FposIUlyiPp3jF-334" style="shape=partialRectangle;html=1;whiteSpace=wrap;connectable=0;fillColor=none;top=0;left=0;bottom=0;right=0;overflow=hidden;" vertex="1" parent="ddTO6_FposIUlyiPp3jF-15">
          <mxGeometry x="568" width="112" height="27" as="geometry" />
        </mxCell>
        <mxCell id="ddTO6_FposIUlyiPp3jF-21" style="shape=partialRectangle;html=1;whiteSpace=wrap;collapsible=0;dropTarget=0;pointerEvents=0;fillColor=none;top=0;left=0;bottom=0;right=0;points=[[0,0.5],[1,0.5]];portConstraint=eastwest;" vertex="1" parent="ddTO6_FposIUlyiPp3jF-2">
          <mxGeometry y="80" width="680" height="27" as="geometry" />
        </mxCell>
        <mxCell id="ddTO6_FposIUlyiPp3jF-22" style="shape=partialRectangle;html=1;whiteSpace=wrap;connectable=0;fillColor=none;top=0;left=0;bottom=0;right=0;overflow=hidden;" vertex="1" parent="ddTO6_FposIUlyiPp3jF-21">
          <mxGeometry width="114" height="27" as="geometry" />
        </mxCell>
        <mxCell id="ddTO6_FposIUlyiPp3jF-23" style="shape=partialRectangle;html=1;whiteSpace=wrap;connectable=0;fillColor=none;top=0;left=0;bottom=0;right=0;overflow=hidden;" vertex="1" parent="ddTO6_FposIUlyiPp3jF-21">
          <mxGeometry x="114" width="113" height="27" as="geometry" />
        </mxCell>
        <mxCell id="ddTO6_FposIUlyiPp3jF-24" style="shape=partialRectangle;html=1;whiteSpace=wrap;connectable=0;fillColor=none;top=0;left=0;bottom=0;right=0;overflow=hidden;" vertex="1" parent="ddTO6_FposIUlyiPp3jF-21">
          <mxGeometry x="227" width="115" height="27" as="geometry" />
        </mxCell>
        <mxCell id="ddTO6_FposIUlyiPp3jF-25" style="shape=partialRectangle;html=1;whiteSpace=wrap;connectable=0;fillColor=none;top=0;left=0;bottom=0;right=0;overflow=hidden;" vertex="1" parent="ddTO6_FposIUlyiPp3jF-21">
          <mxGeometry x="342" width="113" height="27" as="geometry" />
        </mxCell>
        <mxCell id="ddTO6_FposIUlyiPp3jF-26" style="shape=partialRectangle;html=1;whiteSpace=wrap;connectable=0;fillColor=none;top=0;left=0;bottom=0;right=0;overflow=hidden;" vertex="1" parent="ddTO6_FposIUlyiPp3jF-21">
          <mxGeometry x="455" width="113" height="27" as="geometry" />
        </mxCell>
        <mxCell id="ddTO6_FposIUlyiPp3jF-335" style="shape=partialRectangle;html=1;whiteSpace=wrap;connectable=0;fillColor=none;top=0;left=0;bottom=0;right=0;overflow=hidden;" vertex="1" parent="ddTO6_FposIUlyiPp3jF-21">
          <mxGeometry x="568" width="112" height="27" as="geometry" />
        </mxCell>
        <mxCell id="ddTO6_FposIUlyiPp3jF-27" style="shape=partialRectangle;html=1;whiteSpace=wrap;collapsible=0;dropTarget=0;pointerEvents=0;fillColor=none;top=0;left=0;bottom=0;right=0;points=[[0,0.5],[1,0.5]];portConstraint=eastwest;" vertex="1" parent="ddTO6_FposIUlyiPp3jF-2">
          <mxGeometry y="107" width="680" height="26" as="geometry" />
        </mxCell>
        <mxCell id="ddTO6_FposIUlyiPp3jF-28" style="shape=partialRectangle;html=1;whiteSpace=wrap;connectable=0;fillColor=none;top=0;left=0;bottom=0;right=0;overflow=hidden;" vertex="1" parent="ddTO6_FposIUlyiPp3jF-27">
          <mxGeometry width="114" height="26" as="geometry" />
        </mxCell>
        <mxCell id="ddTO6_FposIUlyiPp3jF-29" style="shape=partialRectangle;html=1;whiteSpace=wrap;connectable=0;fillColor=none;top=0;left=0;bottom=0;right=0;overflow=hidden;" vertex="1" parent="ddTO6_FposIUlyiPp3jF-27">
          <mxGeometry x="114" width="113" height="26" as="geometry" />
        </mxCell>
        <mxCell id="ddTO6_FposIUlyiPp3jF-30" style="shape=partialRectangle;html=1;whiteSpace=wrap;connectable=0;fillColor=none;top=0;left=0;bottom=0;right=0;overflow=hidden;" vertex="1" parent="ddTO6_FposIUlyiPp3jF-27">
          <mxGeometry x="227" width="115" height="26" as="geometry" />
        </mxCell>
        <mxCell id="ddTO6_FposIUlyiPp3jF-31" style="shape=partialRectangle;html=1;whiteSpace=wrap;connectable=0;fillColor=none;top=0;left=0;bottom=0;right=0;overflow=hidden;" vertex="1" parent="ddTO6_FposIUlyiPp3jF-27">
          <mxGeometry x="342" width="113" height="26" as="geometry" />
        </mxCell>
        <mxCell id="ddTO6_FposIUlyiPp3jF-32" style="shape=partialRectangle;html=1;whiteSpace=wrap;connectable=0;fillColor=none;top=0;left=0;bottom=0;right=0;overflow=hidden;" vertex="1" parent="ddTO6_FposIUlyiPp3jF-27">
          <mxGeometry x="455" width="113" height="26" as="geometry" />
        </mxCell>
        <mxCell id="ddTO6_FposIUlyiPp3jF-336" style="shape=partialRectangle;html=1;whiteSpace=wrap;connectable=0;fillColor=none;top=0;left=0;bottom=0;right=0;overflow=hidden;" vertex="1" parent="ddTO6_FposIUlyiPp3jF-27">
          <mxGeometry x="568" width="112" height="26" as="geometry" />
        </mxCell>
        <mxCell id="ddTO6_FposIUlyiPp3jF-33" style="shape=partialRectangle;html=1;whiteSpace=wrap;collapsible=0;dropTarget=0;pointerEvents=0;fillColor=none;top=0;left=0;bottom=0;right=0;points=[[0,0.5],[1,0.5]];portConstraint=eastwest;" vertex="1" parent="ddTO6_FposIUlyiPp3jF-2">
          <mxGeometry y="133" width="680" height="27" as="geometry" />
        </mxCell>
        <mxCell id="ddTO6_FposIUlyiPp3jF-34" style="shape=partialRectangle;html=1;whiteSpace=wrap;connectable=0;fillColor=none;top=0;left=0;bottom=0;right=0;overflow=hidden;" vertex="1" parent="ddTO6_FposIUlyiPp3jF-33">
          <mxGeometry width="114" height="27" as="geometry" />
        </mxCell>
        <mxCell id="ddTO6_FposIUlyiPp3jF-35" style="shape=partialRectangle;html=1;whiteSpace=wrap;connectable=0;fillColor=none;top=0;left=0;bottom=0;right=0;overflow=hidden;" vertex="1" parent="ddTO6_FposIUlyiPp3jF-33">
          <mxGeometry x="114" width="113" height="27" as="geometry" />
        </mxCell>
        <mxCell id="ddTO6_FposIUlyiPp3jF-36" style="shape=partialRectangle;html=1;whiteSpace=wrap;connectable=0;fillColor=none;top=0;left=0;bottom=0;right=0;overflow=hidden;" vertex="1" parent="ddTO6_FposIUlyiPp3jF-33">
          <mxGeometry x="227" width="115" height="27" as="geometry" />
        </mxCell>
        <mxCell id="ddTO6_FposIUlyiPp3jF-37" style="shape=partialRectangle;html=1;whiteSpace=wrap;connectable=0;fillColor=none;top=0;left=0;bottom=0;right=0;overflow=hidden;" vertex="1" parent="ddTO6_FposIUlyiPp3jF-33">
          <mxGeometry x="342" width="113" height="27" as="geometry" />
        </mxCell>
        <mxCell id="ddTO6_FposIUlyiPp3jF-38" style="shape=partialRectangle;html=1;whiteSpace=wrap;connectable=0;fillColor=none;top=0;left=0;bottom=0;right=0;overflow=hidden;" vertex="1" parent="ddTO6_FposIUlyiPp3jF-33">
          <mxGeometry x="455" width="113" height="27" as="geometry" />
        </mxCell>
        <mxCell id="ddTO6_FposIUlyiPp3jF-337" style="shape=partialRectangle;html=1;whiteSpace=wrap;connectable=0;fillColor=none;top=0;left=0;bottom=0;right=0;overflow=hidden;" vertex="1" parent="ddTO6_FposIUlyiPp3jF-33">
          <mxGeometry x="568" width="112" height="27" as="geometry" />
        </mxCell>
        <mxCell id="ddTO6_FposIUlyiPp3jF-39" value="Funcionario" style="text;strokeColor=none;fillColor=none;html=1;fontSize=24;fontStyle=1;verticalAlign=middle;align=center;" vertex="1" parent="1">
          <mxGeometry x="150" y="300" width="150" height="30" as="geometry" />
        </mxCell>
        <mxCell id="ddTO6_FposIUlyiPp3jF-40" value="Dependentes" style="text;strokeColor=none;fillColor=none;html=1;fontSize=24;fontStyle=1;verticalAlign=middle;align=center;" vertex="1" parent="1">
          <mxGeometry x="140" y="810" width="150" height="30" as="geometry" />
        </mxCell>
        <mxCell id="ddTO6_FposIUlyiPp3jF-41" value="Cliente" style="text;strokeColor=none;fillColor=none;html=1;fontSize=24;fontStyle=1;verticalAlign=middle;align=center;" vertex="1" parent="1">
          <mxGeometry x="120" y="1169" width="100" height="30" as="geometry" />
        </mxCell>
        <mxCell id="ddTO6_FposIUlyiPp3jF-42" value="" style="shape=table;html=1;whiteSpace=wrap;startSize=0;container=1;collapsible=0;childLayout=tableLayout;strokeWidth=1;" vertex="1" parent="1">
          <mxGeometry x="150" y="370" width="1300" height="160" as="geometry" />
        </mxCell>
        <mxCell id="ddTO6_FposIUlyiPp3jF-43" value="" style="shape=partialRectangle;html=1;whiteSpace=wrap;collapsible=0;dropTarget=0;pointerEvents=0;fillColor=none;top=0;left=0;bottom=0;right=0;points=[[0,0.5],[1,0.5]];portConstraint=eastwest;" vertex="1" parent="ddTO6_FposIUlyiPp3jF-42">
          <mxGeometry width="1300" height="27" as="geometry" />
        </mxCell>
        <mxCell id="ddTO6_FposIUlyiPp3jF-44" value="CPF" style="shape=partialRectangle;html=1;whiteSpace=wrap;connectable=0;fillColor=none;top=0;left=0;bottom=0;right=0;overflow=hidden;fontStyle=5" vertex="1" parent="ddTO6_FposIUlyiPp3jF-43">
          <mxGeometry width="130" height="27" as="geometry" />
        </mxCell>
        <mxCell id="ddTO6_FposIUlyiPp3jF-45" value="P_NOME" style="shape=partialRectangle;html=1;whiteSpace=wrap;connectable=0;fillColor=none;top=0;left=0;bottom=0;right=0;overflow=hidden;" vertex="1" parent="ddTO6_FposIUlyiPp3jF-43">
          <mxGeometry x="130" width="131" height="27" as="geometry" />
        </mxCell>
        <mxCell id="ddTO6_FposIUlyiPp3jF-46" value="M_NOME" style="shape=partialRectangle;html=1;whiteSpace=wrap;connectable=0;fillColor=none;top=0;left=0;bottom=0;right=0;overflow=hidden;" vertex="1" parent="ddTO6_FposIUlyiPp3jF-43">
          <mxGeometry x="261" width="129" height="27" as="geometry" />
        </mxCell>
        <mxCell id="ddTO6_FposIUlyiPp3jF-47" value="U_NOME" style="shape=partialRectangle;html=1;whiteSpace=wrap;connectable=0;fillColor=none;top=0;left=0;bottom=0;right=0;overflow=hidden;" vertex="1" parent="ddTO6_FposIUlyiPp3jF-43">
          <mxGeometry x="390" width="130" height="27" as="geometry" />
        </mxCell>
        <mxCell id="ddTO6_FposIUlyiPp3jF-48" value="DATA_NASC" style="shape=partialRectangle;html=1;whiteSpace=wrap;connectable=0;fillColor=none;top=0;left=0;bottom=0;right=0;overflow=hidden;" vertex="1" parent="ddTO6_FposIUlyiPp3jF-43">
          <mxGeometry x="520" width="130" height="27" as="geometry" />
        </mxCell>
        <mxCell id="ddTO6_FposIUlyiPp3jF-49" value="SEXO" style="shape=partialRectangle;html=1;whiteSpace=wrap;connectable=0;fillColor=none;top=0;left=0;bottom=0;right=0;overflow=hidden;" vertex="1" parent="ddTO6_FposIUlyiPp3jF-43">
          <mxGeometry x="650" width="131" height="27" as="geometry" />
        </mxCell>
        <mxCell id="ddTO6_FposIUlyiPp3jF-50" value="ENDERECO" style="shape=partialRectangle;html=1;whiteSpace=wrap;connectable=0;fillColor=none;top=0;left=0;bottom=0;right=0;overflow=hidden;" vertex="1" parent="ddTO6_FposIUlyiPp3jF-43">
          <mxGeometry x="781" width="129" height="27" as="geometry" />
        </mxCell>
        <mxCell id="ddTO6_FposIUlyiPp3jF-51" value="SALARIO" style="shape=partialRectangle;html=1;whiteSpace=wrap;connectable=0;fillColor=none;top=0;left=0;bottom=0;right=0;overflow=hidden;" vertex="1" parent="ddTO6_FposIUlyiPp3jF-43">
          <mxGeometry x="910" width="130" height="27" as="geometry" />
        </mxCell>
        <mxCell id="ddTO6_FposIUlyiPp3jF-52" value="Fun_sup" style="shape=partialRectangle;html=1;whiteSpace=wrap;connectable=0;fillColor=none;top=0;left=0;bottom=0;right=0;overflow=hidden;" vertex="1" parent="ddTO6_FposIUlyiPp3jF-43">
          <mxGeometry x="1040" width="130" height="27" as="geometry" />
        </mxCell>
        <mxCell id="ddTO6_FposIUlyiPp3jF-53" value="Funcao" style="shape=partialRectangle;html=1;whiteSpace=wrap;connectable=0;fillColor=none;top=0;left=0;bottom=0;right=0;overflow=hidden;" vertex="1" parent="ddTO6_FposIUlyiPp3jF-43">
          <mxGeometry x="1170" width="130" height="27" as="geometry" />
        </mxCell>
        <mxCell id="ddTO6_FposIUlyiPp3jF-56" value="" style="shape=partialRectangle;html=1;whiteSpace=wrap;collapsible=0;dropTarget=0;pointerEvents=0;fillColor=none;top=0;left=0;bottom=0;right=0;points=[[0,0.5],[1,0.5]];portConstraint=eastwest;" vertex="1" parent="ddTO6_FposIUlyiPp3jF-42">
          <mxGeometry y="27" width="1300" height="27" as="geometry" />
        </mxCell>
        <mxCell id="ddTO6_FposIUlyiPp3jF-57" value="" style="shape=partialRectangle;html=1;whiteSpace=wrap;connectable=0;fillColor=none;top=0;left=0;bottom=0;right=0;overflow=hidden;" vertex="1" parent="ddTO6_FposIUlyiPp3jF-56">
          <mxGeometry width="130" height="27" as="geometry" />
        </mxCell>
        <mxCell id="ddTO6_FposIUlyiPp3jF-58" value="" style="shape=partialRectangle;html=1;whiteSpace=wrap;connectable=0;fillColor=none;top=0;left=0;bottom=0;right=0;overflow=hidden;" vertex="1" parent="ddTO6_FposIUlyiPp3jF-56">
          <mxGeometry x="130" width="131" height="27" as="geometry" />
        </mxCell>
        <mxCell id="ddTO6_FposIUlyiPp3jF-59" value="" style="shape=partialRectangle;html=1;whiteSpace=wrap;connectable=0;fillColor=none;top=0;left=0;bottom=0;right=0;overflow=hidden;" vertex="1" parent="ddTO6_FposIUlyiPp3jF-56">
          <mxGeometry x="261" width="129" height="27" as="geometry" />
        </mxCell>
        <mxCell id="ddTO6_FposIUlyiPp3jF-60" style="shape=partialRectangle;html=1;whiteSpace=wrap;connectable=0;fillColor=none;top=0;left=0;bottom=0;right=0;overflow=hidden;" vertex="1" parent="ddTO6_FposIUlyiPp3jF-56">
          <mxGeometry x="390" width="130" height="27" as="geometry" />
        </mxCell>
        <mxCell id="ddTO6_FposIUlyiPp3jF-61" style="shape=partialRectangle;html=1;whiteSpace=wrap;connectable=0;fillColor=none;top=0;left=0;bottom=0;right=0;overflow=hidden;" vertex="1" parent="ddTO6_FposIUlyiPp3jF-56">
          <mxGeometry x="520" width="130" height="27" as="geometry" />
        </mxCell>
        <mxCell id="ddTO6_FposIUlyiPp3jF-62" style="shape=partialRectangle;html=1;whiteSpace=wrap;connectable=0;fillColor=none;top=0;left=0;bottom=0;right=0;overflow=hidden;" vertex="1" parent="ddTO6_FposIUlyiPp3jF-56">
          <mxGeometry x="650" width="131" height="27" as="geometry" />
        </mxCell>
        <mxCell id="ddTO6_FposIUlyiPp3jF-63" style="shape=partialRectangle;html=1;whiteSpace=wrap;connectable=0;fillColor=none;top=0;left=0;bottom=0;right=0;overflow=hidden;" vertex="1" parent="ddTO6_FposIUlyiPp3jF-56">
          <mxGeometry x="781" width="129" height="27" as="geometry" />
        </mxCell>
        <mxCell id="ddTO6_FposIUlyiPp3jF-64" style="shape=partialRectangle;html=1;whiteSpace=wrap;connectable=0;fillColor=none;top=0;left=0;bottom=0;right=0;overflow=hidden;" vertex="1" parent="ddTO6_FposIUlyiPp3jF-56">
          <mxGeometry x="910" width="130" height="27" as="geometry" />
        </mxCell>
        <mxCell id="ddTO6_FposIUlyiPp3jF-65" style="shape=partialRectangle;html=1;whiteSpace=wrap;connectable=0;fillColor=none;top=0;left=0;bottom=0;right=0;overflow=hidden;" vertex="1" parent="ddTO6_FposIUlyiPp3jF-56">
          <mxGeometry x="1040" width="130" height="27" as="geometry" />
        </mxCell>
        <mxCell id="ddTO6_FposIUlyiPp3jF-66" style="shape=partialRectangle;html=1;whiteSpace=wrap;connectable=0;fillColor=none;top=0;left=0;bottom=0;right=0;overflow=hidden;" vertex="1" parent="ddTO6_FposIUlyiPp3jF-56">
          <mxGeometry x="1170" width="130" height="27" as="geometry" />
        </mxCell>
        <mxCell id="ddTO6_FposIUlyiPp3jF-69" value="" style="shape=partialRectangle;html=1;whiteSpace=wrap;collapsible=0;dropTarget=0;pointerEvents=0;fillColor=none;top=0;left=0;bottom=0;right=0;points=[[0,0.5],[1,0.5]];portConstraint=eastwest;" vertex="1" parent="ddTO6_FposIUlyiPp3jF-42">
          <mxGeometry y="54" width="1300" height="26" as="geometry" />
        </mxCell>
        <mxCell id="ddTO6_FposIUlyiPp3jF-70" value="" style="shape=partialRectangle;html=1;whiteSpace=wrap;connectable=0;fillColor=none;top=0;left=0;bottom=0;right=0;overflow=hidden;" vertex="1" parent="ddTO6_FposIUlyiPp3jF-69">
          <mxGeometry width="130" height="26" as="geometry" />
        </mxCell>
        <mxCell id="ddTO6_FposIUlyiPp3jF-71" value="" style="shape=partialRectangle;html=1;whiteSpace=wrap;connectable=0;fillColor=none;top=0;left=0;bottom=0;right=0;overflow=hidden;" vertex="1" parent="ddTO6_FposIUlyiPp3jF-69">
          <mxGeometry x="130" width="131" height="26" as="geometry" />
        </mxCell>
        <mxCell id="ddTO6_FposIUlyiPp3jF-72" value="" style="shape=partialRectangle;html=1;whiteSpace=wrap;connectable=0;fillColor=none;top=0;left=0;bottom=0;right=0;overflow=hidden;" vertex="1" parent="ddTO6_FposIUlyiPp3jF-69">
          <mxGeometry x="261" width="129" height="26" as="geometry" />
        </mxCell>
        <mxCell id="ddTO6_FposIUlyiPp3jF-73" style="shape=partialRectangle;html=1;whiteSpace=wrap;connectable=0;fillColor=none;top=0;left=0;bottom=0;right=0;overflow=hidden;" vertex="1" parent="ddTO6_FposIUlyiPp3jF-69">
          <mxGeometry x="390" width="130" height="26" as="geometry" />
        </mxCell>
        <mxCell id="ddTO6_FposIUlyiPp3jF-74" style="shape=partialRectangle;html=1;whiteSpace=wrap;connectable=0;fillColor=none;top=0;left=0;bottom=0;right=0;overflow=hidden;" vertex="1" parent="ddTO6_FposIUlyiPp3jF-69">
          <mxGeometry x="520" width="130" height="26" as="geometry" />
        </mxCell>
        <mxCell id="ddTO6_FposIUlyiPp3jF-75" style="shape=partialRectangle;html=1;whiteSpace=wrap;connectable=0;fillColor=none;top=0;left=0;bottom=0;right=0;overflow=hidden;" vertex="1" parent="ddTO6_FposIUlyiPp3jF-69">
          <mxGeometry x="650" width="131" height="26" as="geometry" />
        </mxCell>
        <mxCell id="ddTO6_FposIUlyiPp3jF-76" style="shape=partialRectangle;html=1;whiteSpace=wrap;connectable=0;fillColor=none;top=0;left=0;bottom=0;right=0;overflow=hidden;" vertex="1" parent="ddTO6_FposIUlyiPp3jF-69">
          <mxGeometry x="781" width="129" height="26" as="geometry" />
        </mxCell>
        <mxCell id="ddTO6_FposIUlyiPp3jF-77" style="shape=partialRectangle;html=1;whiteSpace=wrap;connectable=0;fillColor=none;top=0;left=0;bottom=0;right=0;overflow=hidden;" vertex="1" parent="ddTO6_FposIUlyiPp3jF-69">
          <mxGeometry x="910" width="130" height="26" as="geometry" />
        </mxCell>
        <mxCell id="ddTO6_FposIUlyiPp3jF-78" style="shape=partialRectangle;html=1;whiteSpace=wrap;connectable=0;fillColor=none;top=0;left=0;bottom=0;right=0;overflow=hidden;" vertex="1" parent="ddTO6_FposIUlyiPp3jF-69">
          <mxGeometry x="1040" width="130" height="26" as="geometry" />
        </mxCell>
        <mxCell id="ddTO6_FposIUlyiPp3jF-79" style="shape=partialRectangle;html=1;whiteSpace=wrap;connectable=0;fillColor=none;top=0;left=0;bottom=0;right=0;overflow=hidden;" vertex="1" parent="ddTO6_FposIUlyiPp3jF-69">
          <mxGeometry x="1170" width="130" height="26" as="geometry" />
        </mxCell>
        <mxCell id="ddTO6_FposIUlyiPp3jF-82" style="shape=partialRectangle;html=1;whiteSpace=wrap;collapsible=0;dropTarget=0;pointerEvents=0;fillColor=none;top=0;left=0;bottom=0;right=0;points=[[0,0.5],[1,0.5]];portConstraint=eastwest;" vertex="1" parent="ddTO6_FposIUlyiPp3jF-42">
          <mxGeometry y="80" width="1300" height="27" as="geometry" />
        </mxCell>
        <mxCell id="ddTO6_FposIUlyiPp3jF-83" style="shape=partialRectangle;html=1;whiteSpace=wrap;connectable=0;fillColor=none;top=0;left=0;bottom=0;right=0;overflow=hidden;" vertex="1" parent="ddTO6_FposIUlyiPp3jF-82">
          <mxGeometry width="130" height="27" as="geometry" />
        </mxCell>
        <mxCell id="ddTO6_FposIUlyiPp3jF-84" style="shape=partialRectangle;html=1;whiteSpace=wrap;connectable=0;fillColor=none;top=0;left=0;bottom=0;right=0;overflow=hidden;" vertex="1" parent="ddTO6_FposIUlyiPp3jF-82">
          <mxGeometry x="130" width="131" height="27" as="geometry" />
        </mxCell>
        <mxCell id="ddTO6_FposIUlyiPp3jF-85" style="shape=partialRectangle;html=1;whiteSpace=wrap;connectable=0;fillColor=none;top=0;left=0;bottom=0;right=0;overflow=hidden;" vertex="1" parent="ddTO6_FposIUlyiPp3jF-82">
          <mxGeometry x="261" width="129" height="27" as="geometry" />
        </mxCell>
        <mxCell id="ddTO6_FposIUlyiPp3jF-86" style="shape=partialRectangle;html=1;whiteSpace=wrap;connectable=0;fillColor=none;top=0;left=0;bottom=0;right=0;overflow=hidden;" vertex="1" parent="ddTO6_FposIUlyiPp3jF-82">
          <mxGeometry x="390" width="130" height="27" as="geometry" />
        </mxCell>
        <mxCell id="ddTO6_FposIUlyiPp3jF-87" style="shape=partialRectangle;html=1;whiteSpace=wrap;connectable=0;fillColor=none;top=0;left=0;bottom=0;right=0;overflow=hidden;" vertex="1" parent="ddTO6_FposIUlyiPp3jF-82">
          <mxGeometry x="520" width="130" height="27" as="geometry" />
        </mxCell>
        <mxCell id="ddTO6_FposIUlyiPp3jF-88" style="shape=partialRectangle;html=1;whiteSpace=wrap;connectable=0;fillColor=none;top=0;left=0;bottom=0;right=0;overflow=hidden;" vertex="1" parent="ddTO6_FposIUlyiPp3jF-82">
          <mxGeometry x="650" width="131" height="27" as="geometry" />
        </mxCell>
        <mxCell id="ddTO6_FposIUlyiPp3jF-89" style="shape=partialRectangle;html=1;whiteSpace=wrap;connectable=0;fillColor=none;top=0;left=0;bottom=0;right=0;overflow=hidden;" vertex="1" parent="ddTO6_FposIUlyiPp3jF-82">
          <mxGeometry x="781" width="129" height="27" as="geometry" />
        </mxCell>
        <mxCell id="ddTO6_FposIUlyiPp3jF-90" style="shape=partialRectangle;html=1;whiteSpace=wrap;connectable=0;fillColor=none;top=0;left=0;bottom=0;right=0;overflow=hidden;" vertex="1" parent="ddTO6_FposIUlyiPp3jF-82">
          <mxGeometry x="910" width="130" height="27" as="geometry" />
        </mxCell>
        <mxCell id="ddTO6_FposIUlyiPp3jF-91" style="shape=partialRectangle;html=1;whiteSpace=wrap;connectable=0;fillColor=none;top=0;left=0;bottom=0;right=0;overflow=hidden;" vertex="1" parent="ddTO6_FposIUlyiPp3jF-82">
          <mxGeometry x="1040" width="130" height="27" as="geometry" />
        </mxCell>
        <mxCell id="ddTO6_FposIUlyiPp3jF-92" style="shape=partialRectangle;html=1;whiteSpace=wrap;connectable=0;fillColor=none;top=0;left=0;bottom=0;right=0;overflow=hidden;" vertex="1" parent="ddTO6_FposIUlyiPp3jF-82">
          <mxGeometry x="1170" width="130" height="27" as="geometry" />
        </mxCell>
        <mxCell id="ddTO6_FposIUlyiPp3jF-95" style="shape=partialRectangle;html=1;whiteSpace=wrap;collapsible=0;dropTarget=0;pointerEvents=0;fillColor=none;top=0;left=0;bottom=0;right=0;points=[[0,0.5],[1,0.5]];portConstraint=eastwest;" vertex="1" parent="ddTO6_FposIUlyiPp3jF-42">
          <mxGeometry y="107" width="1300" height="26" as="geometry" />
        </mxCell>
        <mxCell id="ddTO6_FposIUlyiPp3jF-96" style="shape=partialRectangle;html=1;whiteSpace=wrap;connectable=0;fillColor=none;top=0;left=0;bottom=0;right=0;overflow=hidden;" vertex="1" parent="ddTO6_FposIUlyiPp3jF-95">
          <mxGeometry width="130" height="26" as="geometry" />
        </mxCell>
        <mxCell id="ddTO6_FposIUlyiPp3jF-97" style="shape=partialRectangle;html=1;whiteSpace=wrap;connectable=0;fillColor=none;top=0;left=0;bottom=0;right=0;overflow=hidden;" vertex="1" parent="ddTO6_FposIUlyiPp3jF-95">
          <mxGeometry x="130" width="131" height="26" as="geometry" />
        </mxCell>
        <mxCell id="ddTO6_FposIUlyiPp3jF-98" style="shape=partialRectangle;html=1;whiteSpace=wrap;connectable=0;fillColor=none;top=0;left=0;bottom=0;right=0;overflow=hidden;" vertex="1" parent="ddTO6_FposIUlyiPp3jF-95">
          <mxGeometry x="261" width="129" height="26" as="geometry" />
        </mxCell>
        <mxCell id="ddTO6_FposIUlyiPp3jF-99" style="shape=partialRectangle;html=1;whiteSpace=wrap;connectable=0;fillColor=none;top=0;left=0;bottom=0;right=0;overflow=hidden;" vertex="1" parent="ddTO6_FposIUlyiPp3jF-95">
          <mxGeometry x="390" width="130" height="26" as="geometry" />
        </mxCell>
        <mxCell id="ddTO6_FposIUlyiPp3jF-100" style="shape=partialRectangle;html=1;whiteSpace=wrap;connectable=0;fillColor=none;top=0;left=0;bottom=0;right=0;overflow=hidden;" vertex="1" parent="ddTO6_FposIUlyiPp3jF-95">
          <mxGeometry x="520" width="130" height="26" as="geometry" />
        </mxCell>
        <mxCell id="ddTO6_FposIUlyiPp3jF-101" style="shape=partialRectangle;html=1;whiteSpace=wrap;connectable=0;fillColor=none;top=0;left=0;bottom=0;right=0;overflow=hidden;" vertex="1" parent="ddTO6_FposIUlyiPp3jF-95">
          <mxGeometry x="650" width="131" height="26" as="geometry" />
        </mxCell>
        <mxCell id="ddTO6_FposIUlyiPp3jF-102" style="shape=partialRectangle;html=1;whiteSpace=wrap;connectable=0;fillColor=none;top=0;left=0;bottom=0;right=0;overflow=hidden;" vertex="1" parent="ddTO6_FposIUlyiPp3jF-95">
          <mxGeometry x="781" width="129" height="26" as="geometry" />
        </mxCell>
        <mxCell id="ddTO6_FposIUlyiPp3jF-103" style="shape=partialRectangle;html=1;whiteSpace=wrap;connectable=0;fillColor=none;top=0;left=0;bottom=0;right=0;overflow=hidden;" vertex="1" parent="ddTO6_FposIUlyiPp3jF-95">
          <mxGeometry x="910" width="130" height="26" as="geometry" />
        </mxCell>
        <mxCell id="ddTO6_FposIUlyiPp3jF-104" style="shape=partialRectangle;html=1;whiteSpace=wrap;connectable=0;fillColor=none;top=0;left=0;bottom=0;right=0;overflow=hidden;" vertex="1" parent="ddTO6_FposIUlyiPp3jF-95">
          <mxGeometry x="1040" width="130" height="26" as="geometry" />
        </mxCell>
        <mxCell id="ddTO6_FposIUlyiPp3jF-105" style="shape=partialRectangle;html=1;whiteSpace=wrap;connectable=0;fillColor=none;top=0;left=0;bottom=0;right=0;overflow=hidden;" vertex="1" parent="ddTO6_FposIUlyiPp3jF-95">
          <mxGeometry x="1170" width="130" height="26" as="geometry" />
        </mxCell>
        <mxCell id="ddTO6_FposIUlyiPp3jF-108" style="shape=partialRectangle;html=1;whiteSpace=wrap;collapsible=0;dropTarget=0;pointerEvents=0;fillColor=none;top=0;left=0;bottom=0;right=0;points=[[0,0.5],[1,0.5]];portConstraint=eastwest;" vertex="1" parent="ddTO6_FposIUlyiPp3jF-42">
          <mxGeometry y="133" width="1300" height="27" as="geometry" />
        </mxCell>
        <mxCell id="ddTO6_FposIUlyiPp3jF-109" style="shape=partialRectangle;html=1;whiteSpace=wrap;connectable=0;fillColor=none;top=0;left=0;bottom=0;right=0;overflow=hidden;" vertex="1" parent="ddTO6_FposIUlyiPp3jF-108">
          <mxGeometry width="130" height="27" as="geometry" />
        </mxCell>
        <mxCell id="ddTO6_FposIUlyiPp3jF-110" style="shape=partialRectangle;html=1;whiteSpace=wrap;connectable=0;fillColor=none;top=0;left=0;bottom=0;right=0;overflow=hidden;" vertex="1" parent="ddTO6_FposIUlyiPp3jF-108">
          <mxGeometry x="130" width="131" height="27" as="geometry" />
        </mxCell>
        <mxCell id="ddTO6_FposIUlyiPp3jF-111" style="shape=partialRectangle;html=1;whiteSpace=wrap;connectable=0;fillColor=none;top=0;left=0;bottom=0;right=0;overflow=hidden;" vertex="1" parent="ddTO6_FposIUlyiPp3jF-108">
          <mxGeometry x="261" width="129" height="27" as="geometry" />
        </mxCell>
        <mxCell id="ddTO6_FposIUlyiPp3jF-112" style="shape=partialRectangle;html=1;whiteSpace=wrap;connectable=0;fillColor=none;top=0;left=0;bottom=0;right=0;overflow=hidden;" vertex="1" parent="ddTO6_FposIUlyiPp3jF-108">
          <mxGeometry x="390" width="130" height="27" as="geometry" />
        </mxCell>
        <mxCell id="ddTO6_FposIUlyiPp3jF-113" style="shape=partialRectangle;html=1;whiteSpace=wrap;connectable=0;fillColor=none;top=0;left=0;bottom=0;right=0;overflow=hidden;" vertex="1" parent="ddTO6_FposIUlyiPp3jF-108">
          <mxGeometry x="520" width="130" height="27" as="geometry" />
        </mxCell>
        <mxCell id="ddTO6_FposIUlyiPp3jF-114" style="shape=partialRectangle;html=1;whiteSpace=wrap;connectable=0;fillColor=none;top=0;left=0;bottom=0;right=0;overflow=hidden;" vertex="1" parent="ddTO6_FposIUlyiPp3jF-108">
          <mxGeometry x="650" width="131" height="27" as="geometry" />
        </mxCell>
        <mxCell id="ddTO6_FposIUlyiPp3jF-115" style="shape=partialRectangle;html=1;whiteSpace=wrap;connectable=0;fillColor=none;top=0;left=0;bottom=0;right=0;overflow=hidden;" vertex="1" parent="ddTO6_FposIUlyiPp3jF-108">
          <mxGeometry x="781" width="129" height="27" as="geometry" />
        </mxCell>
        <mxCell id="ddTO6_FposIUlyiPp3jF-116" style="shape=partialRectangle;html=1;whiteSpace=wrap;connectable=0;fillColor=none;top=0;left=0;bottom=0;right=0;overflow=hidden;" vertex="1" parent="ddTO6_FposIUlyiPp3jF-108">
          <mxGeometry x="910" width="130" height="27" as="geometry" />
        </mxCell>
        <mxCell id="ddTO6_FposIUlyiPp3jF-117" style="shape=partialRectangle;html=1;whiteSpace=wrap;connectable=0;fillColor=none;top=0;left=0;bottom=0;right=0;overflow=hidden;" vertex="1" parent="ddTO6_FposIUlyiPp3jF-108">
          <mxGeometry x="1040" width="130" height="27" as="geometry" />
        </mxCell>
        <mxCell id="ddTO6_FposIUlyiPp3jF-118" style="shape=partialRectangle;html=1;whiteSpace=wrap;connectable=0;fillColor=none;top=0;left=0;bottom=0;right=0;overflow=hidden;" vertex="1" parent="ddTO6_FposIUlyiPp3jF-108">
          <mxGeometry x="1170" width="130" height="27" as="geometry" />
        </mxCell>
        <mxCell id="ddTO6_FposIUlyiPp3jF-121" value="" style="endArrow=classic;html=1;" edge="1" parent="ddTO6_FposIUlyiPp3jF-42">
          <mxGeometry width="50" height="50" relative="1" as="geometry">
            <mxPoint x="1100" as="sourcePoint" />
            <mxPoint x="60" as="targetPoint" />
            <Array as="points">
              <mxPoint x="1100" y="-20" />
              <mxPoint x="60" y="-20" />
            </Array>
          </mxGeometry>
        </mxCell>
        <mxCell id="ddTO6_FposIUlyiPp3jF-122" value="" style="shape=table;html=1;whiteSpace=wrap;startSize=0;container=1;collapsible=0;childLayout=tableLayout;strokeWidth=1;fontStyle=5" vertex="1" parent="1">
          <mxGeometry x="830" y="2369" width="687" height="160" as="geometry" />
        </mxCell>
        <mxCell id="ddTO6_FposIUlyiPp3jF-123" value="" style="shape=partialRectangle;html=1;whiteSpace=wrap;collapsible=0;dropTarget=0;pointerEvents=0;fillColor=none;top=0;left=0;bottom=0;right=0;points=[[0,0.5],[1,0.5]];portConstraint=eastwest;" vertex="1" parent="ddTO6_FposIUlyiPp3jF-122">
          <mxGeometry width="687" height="27" as="geometry" />
        </mxCell>
        <mxCell id="ddTO6_FposIUlyiPp3jF-124" value="&lt;u&gt;&lt;b&gt;CNPJ&lt;/b&gt;&lt;/u&gt;" style="shape=partialRectangle;html=1;whiteSpace=wrap;connectable=0;fillColor=none;top=0;left=0;bottom=0;right=0;overflow=hidden;" vertex="1" parent="ddTO6_FposIUlyiPp3jF-123">
          <mxGeometry width="230" height="27" as="geometry" />
        </mxCell>
        <mxCell id="ddTO6_FposIUlyiPp3jF-125" value="RAZAO_SOCIAL" style="shape=partialRectangle;html=1;whiteSpace=wrap;connectable=0;fillColor=none;top=0;left=0;bottom=0;right=0;overflow=hidden;" vertex="1" parent="ddTO6_FposIUlyiPp3jF-123">
          <mxGeometry x="230" width="228" height="27" as="geometry" />
        </mxCell>
        <mxCell id="ddTO6_FposIUlyiPp3jF-126" value="FANTASIA" style="shape=partialRectangle;html=1;whiteSpace=wrap;connectable=0;fillColor=none;top=0;left=0;bottom=0;right=0;overflow=hidden;" vertex="1" parent="ddTO6_FposIUlyiPp3jF-123">
          <mxGeometry x="458" width="229" height="27" as="geometry" />
        </mxCell>
        <mxCell id="ddTO6_FposIUlyiPp3jF-127" value="" style="shape=partialRectangle;html=1;whiteSpace=wrap;collapsible=0;dropTarget=0;pointerEvents=0;fillColor=none;top=0;left=0;bottom=0;right=0;points=[[0,0.5],[1,0.5]];portConstraint=eastwest;" vertex="1" parent="ddTO6_FposIUlyiPp3jF-122">
          <mxGeometry y="27" width="687" height="27" as="geometry" />
        </mxCell>
        <mxCell id="ddTO6_FposIUlyiPp3jF-128" value="" style="shape=partialRectangle;html=1;whiteSpace=wrap;connectable=0;fillColor=none;top=0;left=0;bottom=0;right=0;overflow=hidden;" vertex="1" parent="ddTO6_FposIUlyiPp3jF-127">
          <mxGeometry width="230" height="27" as="geometry" />
        </mxCell>
        <mxCell id="ddTO6_FposIUlyiPp3jF-129" value="" style="shape=partialRectangle;html=1;whiteSpace=wrap;connectable=0;fillColor=none;top=0;left=0;bottom=0;right=0;overflow=hidden;" vertex="1" parent="ddTO6_FposIUlyiPp3jF-127">
          <mxGeometry x="230" width="228" height="27" as="geometry" />
        </mxCell>
        <mxCell id="ddTO6_FposIUlyiPp3jF-130" value="" style="shape=partialRectangle;html=1;whiteSpace=wrap;connectable=0;fillColor=none;top=0;left=0;bottom=0;right=0;overflow=hidden;" vertex="1" parent="ddTO6_FposIUlyiPp3jF-127">
          <mxGeometry x="458" width="229" height="27" as="geometry" />
        </mxCell>
        <mxCell id="ddTO6_FposIUlyiPp3jF-131" value="" style="shape=partialRectangle;html=1;whiteSpace=wrap;collapsible=0;dropTarget=0;pointerEvents=0;fillColor=none;top=0;left=0;bottom=0;right=0;points=[[0,0.5],[1,0.5]];portConstraint=eastwest;" vertex="1" parent="ddTO6_FposIUlyiPp3jF-122">
          <mxGeometry y="54" width="687" height="27" as="geometry" />
        </mxCell>
        <mxCell id="ddTO6_FposIUlyiPp3jF-132" value="" style="shape=partialRectangle;html=1;whiteSpace=wrap;connectable=0;fillColor=none;top=0;left=0;bottom=0;right=0;overflow=hidden;" vertex="1" parent="ddTO6_FposIUlyiPp3jF-131">
          <mxGeometry width="230" height="27" as="geometry" />
        </mxCell>
        <mxCell id="ddTO6_FposIUlyiPp3jF-133" value="" style="shape=partialRectangle;html=1;whiteSpace=wrap;connectable=0;fillColor=none;top=0;left=0;bottom=0;right=0;overflow=hidden;" vertex="1" parent="ddTO6_FposIUlyiPp3jF-131">
          <mxGeometry x="230" width="228" height="27" as="geometry" />
        </mxCell>
        <mxCell id="ddTO6_FposIUlyiPp3jF-134" value="" style="shape=partialRectangle;html=1;whiteSpace=wrap;connectable=0;fillColor=none;top=0;left=0;bottom=0;right=0;overflow=hidden;" vertex="1" parent="ddTO6_FposIUlyiPp3jF-131">
          <mxGeometry x="458" width="229" height="27" as="geometry" />
        </mxCell>
        <mxCell id="ddTO6_FposIUlyiPp3jF-135" style="shape=partialRectangle;html=1;whiteSpace=wrap;collapsible=0;dropTarget=0;pointerEvents=0;fillColor=none;top=0;left=0;bottom=0;right=0;points=[[0,0.5],[1,0.5]];portConstraint=eastwest;" vertex="1" parent="ddTO6_FposIUlyiPp3jF-122">
          <mxGeometry y="81" width="687" height="26" as="geometry" />
        </mxCell>
        <mxCell id="ddTO6_FposIUlyiPp3jF-136" style="shape=partialRectangle;html=1;whiteSpace=wrap;connectable=0;fillColor=none;top=0;left=0;bottom=0;right=0;overflow=hidden;" vertex="1" parent="ddTO6_FposIUlyiPp3jF-135">
          <mxGeometry width="230" height="26" as="geometry" />
        </mxCell>
        <mxCell id="ddTO6_FposIUlyiPp3jF-137" style="shape=partialRectangle;html=1;whiteSpace=wrap;connectable=0;fillColor=none;top=0;left=0;bottom=0;right=0;overflow=hidden;" vertex="1" parent="ddTO6_FposIUlyiPp3jF-135">
          <mxGeometry x="230" width="228" height="26" as="geometry" />
        </mxCell>
        <mxCell id="ddTO6_FposIUlyiPp3jF-138" style="shape=partialRectangle;html=1;whiteSpace=wrap;connectable=0;fillColor=none;top=0;left=0;bottom=0;right=0;overflow=hidden;" vertex="1" parent="ddTO6_FposIUlyiPp3jF-135">
          <mxGeometry x="458" width="229" height="26" as="geometry" />
        </mxCell>
        <mxCell id="ddTO6_FposIUlyiPp3jF-139" style="shape=partialRectangle;html=1;whiteSpace=wrap;collapsible=0;dropTarget=0;pointerEvents=0;fillColor=none;top=0;left=0;bottom=0;right=0;points=[[0,0.5],[1,0.5]];portConstraint=eastwest;" vertex="1" parent="ddTO6_FposIUlyiPp3jF-122">
          <mxGeometry y="107" width="687" height="26" as="geometry" />
        </mxCell>
        <mxCell id="ddTO6_FposIUlyiPp3jF-140" style="shape=partialRectangle;html=1;whiteSpace=wrap;connectable=0;fillColor=none;top=0;left=0;bottom=0;right=0;overflow=hidden;" vertex="1" parent="ddTO6_FposIUlyiPp3jF-139">
          <mxGeometry width="230" height="26" as="geometry" />
        </mxCell>
        <mxCell id="ddTO6_FposIUlyiPp3jF-141" style="shape=partialRectangle;html=1;whiteSpace=wrap;connectable=0;fillColor=none;top=0;left=0;bottom=0;right=0;overflow=hidden;" vertex="1" parent="ddTO6_FposIUlyiPp3jF-139">
          <mxGeometry x="230" width="228" height="26" as="geometry" />
        </mxCell>
        <mxCell id="ddTO6_FposIUlyiPp3jF-142" style="shape=partialRectangle;html=1;whiteSpace=wrap;connectable=0;fillColor=none;top=0;left=0;bottom=0;right=0;overflow=hidden;" vertex="1" parent="ddTO6_FposIUlyiPp3jF-139">
          <mxGeometry x="458" width="229" height="26" as="geometry" />
        </mxCell>
        <mxCell id="ddTO6_FposIUlyiPp3jF-143" style="shape=partialRectangle;html=1;whiteSpace=wrap;collapsible=0;dropTarget=0;pointerEvents=0;fillColor=none;top=0;left=0;bottom=0;right=0;points=[[0,0.5],[1,0.5]];portConstraint=eastwest;" vertex="1" parent="ddTO6_FposIUlyiPp3jF-122">
          <mxGeometry y="133" width="687" height="27" as="geometry" />
        </mxCell>
        <mxCell id="ddTO6_FposIUlyiPp3jF-144" style="shape=partialRectangle;html=1;whiteSpace=wrap;connectable=0;fillColor=none;top=0;left=0;bottom=0;right=0;overflow=hidden;" vertex="1" parent="ddTO6_FposIUlyiPp3jF-143">
          <mxGeometry width="230" height="27" as="geometry" />
        </mxCell>
        <mxCell id="ddTO6_FposIUlyiPp3jF-145" style="shape=partialRectangle;html=1;whiteSpace=wrap;connectable=0;fillColor=none;top=0;left=0;bottom=0;right=0;overflow=hidden;" vertex="1" parent="ddTO6_FposIUlyiPp3jF-143">
          <mxGeometry x="230" width="228" height="27" as="geometry" />
        </mxCell>
        <mxCell id="ddTO6_FposIUlyiPp3jF-146" style="shape=partialRectangle;html=1;whiteSpace=wrap;connectable=0;fillColor=none;top=0;left=0;bottom=0;right=0;overflow=hidden;" vertex="1" parent="ddTO6_FposIUlyiPp3jF-143">
          <mxGeometry x="458" width="229" height="27" as="geometry" />
        </mxCell>
        <mxCell id="ddTO6_FposIUlyiPp3jF-147" value="Banco" style="text;strokeColor=none;fillColor=none;html=1;fontSize=24;fontStyle=1;verticalAlign=middle;align=center;" vertex="1" parent="1">
          <mxGeometry x="830" y="2338" width="100" height="29" as="geometry" />
        </mxCell>
        <mxCell id="ddTO6_FposIUlyiPp3jF-148" value="" style="shape=table;html=1;whiteSpace=wrap;startSize=0;container=1;collapsible=0;childLayout=tableLayout;strokeWidth=1;" vertex="1" parent="1">
          <mxGeometry x="140" y="840" width="680" height="160" as="geometry" />
        </mxCell>
        <mxCell id="ddTO6_FposIUlyiPp3jF-149" value="" style="shape=partialRectangle;html=1;whiteSpace=wrap;collapsible=0;dropTarget=0;pointerEvents=0;fillColor=none;top=0;left=0;bottom=0;right=0;points=[[0,0.5],[1,0.5]];portConstraint=eastwest;" vertex="1" parent="ddTO6_FposIUlyiPp3jF-148">
          <mxGeometry width="680" height="27" as="geometry" />
        </mxCell>
        <mxCell id="ddTO6_FposIUlyiPp3jF-150" value="&lt;u&gt;&lt;b&gt;F_CPF&lt;/b&gt;&lt;/u&gt;" style="shape=partialRectangle;html=1;whiteSpace=wrap;connectable=0;fillColor=none;top=0;left=0;bottom=0;right=0;overflow=hidden;" vertex="1" parent="ddTO6_FposIUlyiPp3jF-149">
          <mxGeometry width="136" height="27" as="geometry" />
        </mxCell>
        <mxCell id="ddTO6_FposIUlyiPp3jF-151" value="&lt;b&gt;&lt;u&gt;NOME&lt;/u&gt;&lt;/b&gt;" style="shape=partialRectangle;html=1;whiteSpace=wrap;connectable=0;fillColor=none;top=0;left=0;bottom=0;right=0;overflow=hidden;" vertex="1" parent="ddTO6_FposIUlyiPp3jF-149">
          <mxGeometry x="136" width="137" height="27" as="geometry" />
        </mxCell>
        <mxCell id="ddTO6_FposIUlyiPp3jF-152" value="DATA_NASC" style="shape=partialRectangle;html=1;whiteSpace=wrap;connectable=0;fillColor=none;top=0;left=0;bottom=0;right=0;overflow=hidden;" vertex="1" parent="ddTO6_FposIUlyiPp3jF-149">
          <mxGeometry x="273" width="136" height="27" as="geometry" />
        </mxCell>
        <mxCell id="ddTO6_FposIUlyiPp3jF-153" value="SEXO" style="shape=partialRectangle;html=1;whiteSpace=wrap;connectable=0;fillColor=none;top=0;left=0;bottom=0;right=0;overflow=hidden;" vertex="1" parent="ddTO6_FposIUlyiPp3jF-149">
          <mxGeometry x="409" width="135" height="27" as="geometry" />
        </mxCell>
        <mxCell id="ddTO6_FposIUlyiPp3jF-154" value="PARENTESCO" style="shape=partialRectangle;html=1;whiteSpace=wrap;connectable=0;fillColor=none;top=0;left=0;bottom=0;right=0;overflow=hidden;" vertex="1" parent="ddTO6_FposIUlyiPp3jF-149">
          <mxGeometry x="544" width="136" height="27" as="geometry" />
        </mxCell>
        <mxCell id="ddTO6_FposIUlyiPp3jF-155" value="" style="shape=partialRectangle;html=1;whiteSpace=wrap;collapsible=0;dropTarget=0;pointerEvents=0;fillColor=none;top=0;left=0;bottom=0;right=0;points=[[0,0.5],[1,0.5]];portConstraint=eastwest;" vertex="1" parent="ddTO6_FposIUlyiPp3jF-148">
          <mxGeometry y="27" width="680" height="26" as="geometry" />
        </mxCell>
        <mxCell id="ddTO6_FposIUlyiPp3jF-156" value="" style="shape=partialRectangle;html=1;whiteSpace=wrap;connectable=0;fillColor=none;top=0;left=0;bottom=0;right=0;overflow=hidden;" vertex="1" parent="ddTO6_FposIUlyiPp3jF-155">
          <mxGeometry width="136" height="26" as="geometry" />
        </mxCell>
        <mxCell id="ddTO6_FposIUlyiPp3jF-157" value="" style="shape=partialRectangle;html=1;whiteSpace=wrap;connectable=0;fillColor=none;top=0;left=0;bottom=0;right=0;overflow=hidden;" vertex="1" parent="ddTO6_FposIUlyiPp3jF-155">
          <mxGeometry x="136" width="137" height="26" as="geometry" />
        </mxCell>
        <mxCell id="ddTO6_FposIUlyiPp3jF-158" value="" style="shape=partialRectangle;html=1;whiteSpace=wrap;connectable=0;fillColor=none;top=0;left=0;bottom=0;right=0;overflow=hidden;" vertex="1" parent="ddTO6_FposIUlyiPp3jF-155">
          <mxGeometry x="273" width="136" height="26" as="geometry" />
        </mxCell>
        <mxCell id="ddTO6_FposIUlyiPp3jF-159" style="shape=partialRectangle;html=1;whiteSpace=wrap;connectable=0;fillColor=none;top=0;left=0;bottom=0;right=0;overflow=hidden;" vertex="1" parent="ddTO6_FposIUlyiPp3jF-155">
          <mxGeometry x="409" width="135" height="26" as="geometry" />
        </mxCell>
        <mxCell id="ddTO6_FposIUlyiPp3jF-160" style="shape=partialRectangle;html=1;whiteSpace=wrap;connectable=0;fillColor=none;top=0;left=0;bottom=0;right=0;overflow=hidden;" vertex="1" parent="ddTO6_FposIUlyiPp3jF-155">
          <mxGeometry x="544" width="136" height="26" as="geometry" />
        </mxCell>
        <mxCell id="ddTO6_FposIUlyiPp3jF-161" value="" style="shape=partialRectangle;html=1;whiteSpace=wrap;collapsible=0;dropTarget=0;pointerEvents=0;fillColor=none;top=0;left=0;bottom=0;right=0;points=[[0,0.5],[1,0.5]];portConstraint=eastwest;" vertex="1" parent="ddTO6_FposIUlyiPp3jF-148">
          <mxGeometry y="53" width="680" height="27" as="geometry" />
        </mxCell>
        <mxCell id="ddTO6_FposIUlyiPp3jF-162" value="" style="shape=partialRectangle;html=1;whiteSpace=wrap;connectable=0;fillColor=none;top=0;left=0;bottom=0;right=0;overflow=hidden;" vertex="1" parent="ddTO6_FposIUlyiPp3jF-161">
          <mxGeometry width="136" height="27" as="geometry" />
        </mxCell>
        <mxCell id="ddTO6_FposIUlyiPp3jF-163" value="" style="shape=partialRectangle;html=1;whiteSpace=wrap;connectable=0;fillColor=none;top=0;left=0;bottom=0;right=0;overflow=hidden;" vertex="1" parent="ddTO6_FposIUlyiPp3jF-161">
          <mxGeometry x="136" width="137" height="27" as="geometry" />
        </mxCell>
        <mxCell id="ddTO6_FposIUlyiPp3jF-164" value="" style="shape=partialRectangle;html=1;whiteSpace=wrap;connectable=0;fillColor=none;top=0;left=0;bottom=0;right=0;overflow=hidden;" vertex="1" parent="ddTO6_FposIUlyiPp3jF-161">
          <mxGeometry x="273" width="136" height="27" as="geometry" />
        </mxCell>
        <mxCell id="ddTO6_FposIUlyiPp3jF-165" style="shape=partialRectangle;html=1;whiteSpace=wrap;connectable=0;fillColor=none;top=0;left=0;bottom=0;right=0;overflow=hidden;" vertex="1" parent="ddTO6_FposIUlyiPp3jF-161">
          <mxGeometry x="409" width="135" height="27" as="geometry" />
        </mxCell>
        <mxCell id="ddTO6_FposIUlyiPp3jF-166" style="shape=partialRectangle;html=1;whiteSpace=wrap;connectable=0;fillColor=none;top=0;left=0;bottom=0;right=0;overflow=hidden;" vertex="1" parent="ddTO6_FposIUlyiPp3jF-161">
          <mxGeometry x="544" width="136" height="27" as="geometry" />
        </mxCell>
        <mxCell id="ddTO6_FposIUlyiPp3jF-167" style="shape=partialRectangle;html=1;whiteSpace=wrap;collapsible=0;dropTarget=0;pointerEvents=0;fillColor=none;top=0;left=0;bottom=0;right=0;points=[[0,0.5],[1,0.5]];portConstraint=eastwest;" vertex="1" parent="ddTO6_FposIUlyiPp3jF-148">
          <mxGeometry y="80" width="680" height="27" as="geometry" />
        </mxCell>
        <mxCell id="ddTO6_FposIUlyiPp3jF-168" style="shape=partialRectangle;html=1;whiteSpace=wrap;connectable=0;fillColor=none;top=0;left=0;bottom=0;right=0;overflow=hidden;" vertex="1" parent="ddTO6_FposIUlyiPp3jF-167">
          <mxGeometry width="136" height="27" as="geometry" />
        </mxCell>
        <mxCell id="ddTO6_FposIUlyiPp3jF-169" style="shape=partialRectangle;html=1;whiteSpace=wrap;connectable=0;fillColor=none;top=0;left=0;bottom=0;right=0;overflow=hidden;" vertex="1" parent="ddTO6_FposIUlyiPp3jF-167">
          <mxGeometry x="136" width="137" height="27" as="geometry" />
        </mxCell>
        <mxCell id="ddTO6_FposIUlyiPp3jF-170" style="shape=partialRectangle;html=1;whiteSpace=wrap;connectable=0;fillColor=none;top=0;left=0;bottom=0;right=0;overflow=hidden;" vertex="1" parent="ddTO6_FposIUlyiPp3jF-167">
          <mxGeometry x="273" width="136" height="27" as="geometry" />
        </mxCell>
        <mxCell id="ddTO6_FposIUlyiPp3jF-171" style="shape=partialRectangle;html=1;whiteSpace=wrap;connectable=0;fillColor=none;top=0;left=0;bottom=0;right=0;overflow=hidden;" vertex="1" parent="ddTO6_FposIUlyiPp3jF-167">
          <mxGeometry x="409" width="135" height="27" as="geometry" />
        </mxCell>
        <mxCell id="ddTO6_FposIUlyiPp3jF-172" style="shape=partialRectangle;html=1;whiteSpace=wrap;connectable=0;fillColor=none;top=0;left=0;bottom=0;right=0;overflow=hidden;" vertex="1" parent="ddTO6_FposIUlyiPp3jF-167">
          <mxGeometry x="544" width="136" height="27" as="geometry" />
        </mxCell>
        <mxCell id="ddTO6_FposIUlyiPp3jF-173" style="shape=partialRectangle;html=1;whiteSpace=wrap;collapsible=0;dropTarget=0;pointerEvents=0;fillColor=none;top=0;left=0;bottom=0;right=0;points=[[0,0.5],[1,0.5]];portConstraint=eastwest;" vertex="1" parent="ddTO6_FposIUlyiPp3jF-148">
          <mxGeometry y="107" width="680" height="26" as="geometry" />
        </mxCell>
        <mxCell id="ddTO6_FposIUlyiPp3jF-174" style="shape=partialRectangle;html=1;whiteSpace=wrap;connectable=0;fillColor=none;top=0;left=0;bottom=0;right=0;overflow=hidden;" vertex="1" parent="ddTO6_FposIUlyiPp3jF-173">
          <mxGeometry width="136" height="26" as="geometry" />
        </mxCell>
        <mxCell id="ddTO6_FposIUlyiPp3jF-175" style="shape=partialRectangle;html=1;whiteSpace=wrap;connectable=0;fillColor=none;top=0;left=0;bottom=0;right=0;overflow=hidden;" vertex="1" parent="ddTO6_FposIUlyiPp3jF-173">
          <mxGeometry x="136" width="137" height="26" as="geometry" />
        </mxCell>
        <mxCell id="ddTO6_FposIUlyiPp3jF-176" style="shape=partialRectangle;html=1;whiteSpace=wrap;connectable=0;fillColor=none;top=0;left=0;bottom=0;right=0;overflow=hidden;" vertex="1" parent="ddTO6_FposIUlyiPp3jF-173">
          <mxGeometry x="273" width="136" height="26" as="geometry" />
        </mxCell>
        <mxCell id="ddTO6_FposIUlyiPp3jF-177" style="shape=partialRectangle;html=1;whiteSpace=wrap;connectable=0;fillColor=none;top=0;left=0;bottom=0;right=0;overflow=hidden;" vertex="1" parent="ddTO6_FposIUlyiPp3jF-173">
          <mxGeometry x="409" width="135" height="26" as="geometry" />
        </mxCell>
        <mxCell id="ddTO6_FposIUlyiPp3jF-178" style="shape=partialRectangle;html=1;whiteSpace=wrap;connectable=0;fillColor=none;top=0;left=0;bottom=0;right=0;overflow=hidden;" vertex="1" parent="ddTO6_FposIUlyiPp3jF-173">
          <mxGeometry x="544" width="136" height="26" as="geometry" />
        </mxCell>
        <mxCell id="ddTO6_FposIUlyiPp3jF-179" style="shape=partialRectangle;html=1;whiteSpace=wrap;collapsible=0;dropTarget=0;pointerEvents=0;fillColor=none;top=0;left=0;bottom=0;right=0;points=[[0,0.5],[1,0.5]];portConstraint=eastwest;" vertex="1" parent="ddTO6_FposIUlyiPp3jF-148">
          <mxGeometry y="133" width="680" height="27" as="geometry" />
        </mxCell>
        <mxCell id="ddTO6_FposIUlyiPp3jF-180" style="shape=partialRectangle;html=1;whiteSpace=wrap;connectable=0;fillColor=none;top=0;left=0;bottom=0;right=0;overflow=hidden;" vertex="1" parent="ddTO6_FposIUlyiPp3jF-179">
          <mxGeometry width="136" height="27" as="geometry" />
        </mxCell>
        <mxCell id="ddTO6_FposIUlyiPp3jF-181" style="shape=partialRectangle;html=1;whiteSpace=wrap;connectable=0;fillColor=none;top=0;left=0;bottom=0;right=0;overflow=hidden;" vertex="1" parent="ddTO6_FposIUlyiPp3jF-179">
          <mxGeometry x="136" width="137" height="27" as="geometry" />
        </mxCell>
        <mxCell id="ddTO6_FposIUlyiPp3jF-182" style="shape=partialRectangle;html=1;whiteSpace=wrap;connectable=0;fillColor=none;top=0;left=0;bottom=0;right=0;overflow=hidden;" vertex="1" parent="ddTO6_FposIUlyiPp3jF-179">
          <mxGeometry x="273" width="136" height="27" as="geometry" />
        </mxCell>
        <mxCell id="ddTO6_FposIUlyiPp3jF-183" style="shape=partialRectangle;html=1;whiteSpace=wrap;connectable=0;fillColor=none;top=0;left=0;bottom=0;right=0;overflow=hidden;" vertex="1" parent="ddTO6_FposIUlyiPp3jF-179">
          <mxGeometry x="409" width="135" height="27" as="geometry" />
        </mxCell>
        <mxCell id="ddTO6_FposIUlyiPp3jF-184" style="shape=partialRectangle;html=1;whiteSpace=wrap;connectable=0;fillColor=none;top=0;left=0;bottom=0;right=0;overflow=hidden;" vertex="1" parent="ddTO6_FposIUlyiPp3jF-179">
          <mxGeometry x="544" width="136" height="27" as="geometry" />
        </mxCell>
        <mxCell id="ddTO6_FposIUlyiPp3jF-185" value="" style="shape=table;html=1;whiteSpace=wrap;startSize=0;container=1;collapsible=0;childLayout=tableLayout;strokeWidth=1;" vertex="1" parent="1">
          <mxGeometry x="830" y="2639" width="520" height="160" as="geometry" />
        </mxCell>
        <mxCell id="ddTO6_FposIUlyiPp3jF-186" value="" style="shape=partialRectangle;html=1;whiteSpace=wrap;collapsible=0;dropTarget=0;pointerEvents=0;fillColor=none;top=0;left=0;bottom=0;right=0;points=[[0,0.5],[1,0.5]];portConstraint=eastwest;" vertex="1" parent="ddTO6_FposIUlyiPp3jF-185">
          <mxGeometry width="520" height="27" as="geometry" />
        </mxCell>
        <mxCell id="ddTO6_FposIUlyiPp3jF-187" value="N_registro" style="shape=partialRectangle;html=1;whiteSpace=wrap;connectable=0;fillColor=none;top=0;left=0;bottom=0;right=0;overflow=hidden;fontStyle=5" vertex="1" parent="ddTO6_FposIUlyiPp3jF-186">
          <mxGeometry width="173" height="27" as="geometry" />
        </mxCell>
        <mxCell id="ddTO6_FposIUlyiPp3jF-188" value="Informacoes" style="shape=partialRectangle;html=1;whiteSpace=wrap;connectable=0;fillColor=none;top=0;left=0;bottom=0;right=0;overflow=hidden;" vertex="1" parent="ddTO6_FposIUlyiPp3jF-186">
          <mxGeometry x="173" width="174" height="27" as="geometry" />
        </mxCell>
        <mxCell id="ddTO6_FposIUlyiPp3jF-189" value="Tipo_contrato" style="shape=partialRectangle;html=1;whiteSpace=wrap;connectable=0;fillColor=none;top=0;left=0;bottom=0;right=0;overflow=hidden;" vertex="1" parent="ddTO6_FposIUlyiPp3jF-186">
          <mxGeometry x="347" width="173" height="27" as="geometry" />
        </mxCell>
        <mxCell id="ddTO6_FposIUlyiPp3jF-190" value="" style="shape=partialRectangle;html=1;whiteSpace=wrap;collapsible=0;dropTarget=0;pointerEvents=0;fillColor=none;top=0;left=0;bottom=0;right=0;points=[[0,0.5],[1,0.5]];portConstraint=eastwest;" vertex="1" parent="ddTO6_FposIUlyiPp3jF-185">
          <mxGeometry y="27" width="520" height="26" as="geometry" />
        </mxCell>
        <mxCell id="ddTO6_FposIUlyiPp3jF-191" value="" style="shape=partialRectangle;html=1;whiteSpace=wrap;connectable=0;fillColor=none;top=0;left=0;bottom=0;right=0;overflow=hidden;" vertex="1" parent="ddTO6_FposIUlyiPp3jF-190">
          <mxGeometry width="173" height="26" as="geometry" />
        </mxCell>
        <mxCell id="ddTO6_FposIUlyiPp3jF-192" value="" style="shape=partialRectangle;html=1;whiteSpace=wrap;connectable=0;fillColor=none;top=0;left=0;bottom=0;right=0;overflow=hidden;" vertex="1" parent="ddTO6_FposIUlyiPp3jF-190">
          <mxGeometry x="173" width="174" height="26" as="geometry" />
        </mxCell>
        <mxCell id="ddTO6_FposIUlyiPp3jF-193" value="" style="shape=partialRectangle;html=1;whiteSpace=wrap;connectable=0;fillColor=none;top=0;left=0;bottom=0;right=0;overflow=hidden;" vertex="1" parent="ddTO6_FposIUlyiPp3jF-190">
          <mxGeometry x="347" width="173" height="26" as="geometry" />
        </mxCell>
        <mxCell id="ddTO6_FposIUlyiPp3jF-194" value="" style="shape=partialRectangle;html=1;whiteSpace=wrap;collapsible=0;dropTarget=0;pointerEvents=0;fillColor=none;top=0;left=0;bottom=0;right=0;points=[[0,0.5],[1,0.5]];portConstraint=eastwest;" vertex="1" parent="ddTO6_FposIUlyiPp3jF-185">
          <mxGeometry y="53" width="520" height="27" as="geometry" />
        </mxCell>
        <mxCell id="ddTO6_FposIUlyiPp3jF-195" value="" style="shape=partialRectangle;html=1;whiteSpace=wrap;connectable=0;fillColor=none;top=0;left=0;bottom=0;right=0;overflow=hidden;" vertex="1" parent="ddTO6_FposIUlyiPp3jF-194">
          <mxGeometry width="173" height="27" as="geometry" />
        </mxCell>
        <mxCell id="ddTO6_FposIUlyiPp3jF-196" value="" style="shape=partialRectangle;html=1;whiteSpace=wrap;connectable=0;fillColor=none;top=0;left=0;bottom=0;right=0;overflow=hidden;" vertex="1" parent="ddTO6_FposIUlyiPp3jF-194">
          <mxGeometry x="173" width="174" height="27" as="geometry" />
        </mxCell>
        <mxCell id="ddTO6_FposIUlyiPp3jF-197" value="" style="shape=partialRectangle;html=1;whiteSpace=wrap;connectable=0;fillColor=none;top=0;left=0;bottom=0;right=0;overflow=hidden;" vertex="1" parent="ddTO6_FposIUlyiPp3jF-194">
          <mxGeometry x="347" width="173" height="27" as="geometry" />
        </mxCell>
        <mxCell id="ddTO6_FposIUlyiPp3jF-198" style="shape=partialRectangle;html=1;whiteSpace=wrap;collapsible=0;dropTarget=0;pointerEvents=0;fillColor=none;top=0;left=0;bottom=0;right=0;points=[[0,0.5],[1,0.5]];portConstraint=eastwest;" vertex="1" parent="ddTO6_FposIUlyiPp3jF-185">
          <mxGeometry y="80" width="520" height="27" as="geometry" />
        </mxCell>
        <mxCell id="ddTO6_FposIUlyiPp3jF-199" style="shape=partialRectangle;html=1;whiteSpace=wrap;connectable=0;fillColor=none;top=0;left=0;bottom=0;right=0;overflow=hidden;" vertex="1" parent="ddTO6_FposIUlyiPp3jF-198">
          <mxGeometry width="173" height="27" as="geometry" />
        </mxCell>
        <mxCell id="ddTO6_FposIUlyiPp3jF-200" style="shape=partialRectangle;html=1;whiteSpace=wrap;connectable=0;fillColor=none;top=0;left=0;bottom=0;right=0;overflow=hidden;" vertex="1" parent="ddTO6_FposIUlyiPp3jF-198">
          <mxGeometry x="173" width="174" height="27" as="geometry" />
        </mxCell>
        <mxCell id="ddTO6_FposIUlyiPp3jF-201" style="shape=partialRectangle;html=1;whiteSpace=wrap;connectable=0;fillColor=none;top=0;left=0;bottom=0;right=0;overflow=hidden;" vertex="1" parent="ddTO6_FposIUlyiPp3jF-198">
          <mxGeometry x="347" width="173" height="27" as="geometry" />
        </mxCell>
        <mxCell id="ddTO6_FposIUlyiPp3jF-202" style="shape=partialRectangle;html=1;whiteSpace=wrap;collapsible=0;dropTarget=0;pointerEvents=0;fillColor=none;top=0;left=0;bottom=0;right=0;points=[[0,0.5],[1,0.5]];portConstraint=eastwest;" vertex="1" parent="ddTO6_FposIUlyiPp3jF-185">
          <mxGeometry y="107" width="520" height="26" as="geometry" />
        </mxCell>
        <mxCell id="ddTO6_FposIUlyiPp3jF-203" style="shape=partialRectangle;html=1;whiteSpace=wrap;connectable=0;fillColor=none;top=0;left=0;bottom=0;right=0;overflow=hidden;" vertex="1" parent="ddTO6_FposIUlyiPp3jF-202">
          <mxGeometry width="173" height="26" as="geometry" />
        </mxCell>
        <mxCell id="ddTO6_FposIUlyiPp3jF-204" style="shape=partialRectangle;html=1;whiteSpace=wrap;connectable=0;fillColor=none;top=0;left=0;bottom=0;right=0;overflow=hidden;" vertex="1" parent="ddTO6_FposIUlyiPp3jF-202">
          <mxGeometry x="173" width="174" height="26" as="geometry" />
        </mxCell>
        <mxCell id="ddTO6_FposIUlyiPp3jF-205" style="shape=partialRectangle;html=1;whiteSpace=wrap;connectable=0;fillColor=none;top=0;left=0;bottom=0;right=0;overflow=hidden;" vertex="1" parent="ddTO6_FposIUlyiPp3jF-202">
          <mxGeometry x="347" width="173" height="26" as="geometry" />
        </mxCell>
        <mxCell id="ddTO6_FposIUlyiPp3jF-206" style="shape=partialRectangle;html=1;whiteSpace=wrap;collapsible=0;dropTarget=0;pointerEvents=0;fillColor=none;top=0;left=0;bottom=0;right=0;points=[[0,0.5],[1,0.5]];portConstraint=eastwest;" vertex="1" parent="ddTO6_FposIUlyiPp3jF-185">
          <mxGeometry y="133" width="520" height="27" as="geometry" />
        </mxCell>
        <mxCell id="ddTO6_FposIUlyiPp3jF-207" style="shape=partialRectangle;html=1;whiteSpace=wrap;connectable=0;fillColor=none;top=0;left=0;bottom=0;right=0;overflow=hidden;" vertex="1" parent="ddTO6_FposIUlyiPp3jF-206">
          <mxGeometry width="173" height="27" as="geometry" />
        </mxCell>
        <mxCell id="ddTO6_FposIUlyiPp3jF-208" style="shape=partialRectangle;html=1;whiteSpace=wrap;connectable=0;fillColor=none;top=0;left=0;bottom=0;right=0;overflow=hidden;" vertex="1" parent="ddTO6_FposIUlyiPp3jF-206">
          <mxGeometry x="173" width="174" height="27" as="geometry" />
        </mxCell>
        <mxCell id="ddTO6_FposIUlyiPp3jF-209" style="shape=partialRectangle;html=1;whiteSpace=wrap;connectable=0;fillColor=none;top=0;left=0;bottom=0;right=0;overflow=hidden;" vertex="1" parent="ddTO6_FposIUlyiPp3jF-206">
          <mxGeometry x="347" width="173" height="27" as="geometry" />
        </mxCell>
        <mxCell id="ddTO6_FposIUlyiPp3jF-210" value="Contrato" style="text;strokeColor=none;fillColor=none;html=1;fontSize=24;fontStyle=1;verticalAlign=middle;align=center;" vertex="1" parent="1">
          <mxGeometry x="830" y="2609" width="100" height="30" as="geometry" />
        </mxCell>
        <mxCell id="ddTO6_FposIUlyiPp3jF-211" value="" style="shape=table;html=1;whiteSpace=wrap;startSize=0;container=1;collapsible=0;childLayout=tableLayout;strokeWidth=1;" vertex="1" parent="1">
          <mxGeometry x="120" y="1209" width="700" height="160" as="geometry" />
        </mxCell>
        <mxCell id="ddTO6_FposIUlyiPp3jF-212" value="" style="shape=partialRectangle;html=1;whiteSpace=wrap;collapsible=0;dropTarget=0;pointerEvents=0;fillColor=none;top=0;left=0;bottom=0;right=0;points=[[0,0.5],[1,0.5]];portConstraint=eastwest;" vertex="1" parent="ddTO6_FposIUlyiPp3jF-211">
          <mxGeometry width="700" height="27" as="geometry" />
        </mxCell>
        <mxCell id="ddTO6_FposIUlyiPp3jF-213" value="CPF" style="shape=partialRectangle;html=1;whiteSpace=wrap;connectable=0;fillColor=none;top=0;left=0;bottom=0;right=0;overflow=hidden;fontStyle=5" vertex="1" parent="ddTO6_FposIUlyiPp3jF-212">
          <mxGeometry width="140" height="27" as="geometry" />
        </mxCell>
        <mxCell id="ddTO6_FposIUlyiPp3jF-214" value="NOME" style="shape=partialRectangle;html=1;whiteSpace=wrap;connectable=0;fillColor=none;top=0;left=0;bottom=0;right=0;overflow=hidden;" vertex="1" parent="ddTO6_FposIUlyiPp3jF-212">
          <mxGeometry x="140" width="140" height="27" as="geometry" />
        </mxCell>
        <mxCell id="ddTO6_FposIUlyiPp3jF-215" value="ENDERECO" style="shape=partialRectangle;html=1;whiteSpace=wrap;connectable=0;fillColor=none;top=0;left=0;bottom=0;right=0;overflow=hidden;" vertex="1" parent="ddTO6_FposIUlyiPp3jF-212">
          <mxGeometry x="280" width="140" height="27" as="geometry" />
        </mxCell>
        <mxCell id="ddTO6_FposIUlyiPp3jF-216" value="NUM_TELEFONE" style="shape=partialRectangle;html=1;whiteSpace=wrap;connectable=0;fillColor=none;top=0;left=0;bottom=0;right=0;overflow=hidden;" vertex="1" parent="ddTO6_FposIUlyiPp3jF-212">
          <mxGeometry x="420" width="140" height="27" as="geometry" />
        </mxCell>
        <mxCell id="ddTO6_FposIUlyiPp3jF-217" value="Tipo_Proprietario" style="shape=partialRectangle;html=1;whiteSpace=wrap;connectable=0;fillColor=none;top=0;left=0;bottom=0;right=0;overflow=hidden;" vertex="1" parent="ddTO6_FposIUlyiPp3jF-212">
          <mxGeometry x="560" width="140" height="27" as="geometry" />
        </mxCell>
        <mxCell id="ddTO6_FposIUlyiPp3jF-218" value="" style="shape=partialRectangle;html=1;whiteSpace=wrap;collapsible=0;dropTarget=0;pointerEvents=0;fillColor=none;top=0;left=0;bottom=0;right=0;points=[[0,0.5],[1,0.5]];portConstraint=eastwest;" vertex="1" parent="ddTO6_FposIUlyiPp3jF-211">
          <mxGeometry y="27" width="700" height="26" as="geometry" />
        </mxCell>
        <mxCell id="ddTO6_FposIUlyiPp3jF-219" value="" style="shape=partialRectangle;html=1;whiteSpace=wrap;connectable=0;fillColor=none;top=0;left=0;bottom=0;right=0;overflow=hidden;" vertex="1" parent="ddTO6_FposIUlyiPp3jF-218">
          <mxGeometry width="140" height="26" as="geometry" />
        </mxCell>
        <mxCell id="ddTO6_FposIUlyiPp3jF-220" value="" style="shape=partialRectangle;html=1;whiteSpace=wrap;connectable=0;fillColor=none;top=0;left=0;bottom=0;right=0;overflow=hidden;" vertex="1" parent="ddTO6_FposIUlyiPp3jF-218">
          <mxGeometry x="140" width="140" height="26" as="geometry" />
        </mxCell>
        <mxCell id="ddTO6_FposIUlyiPp3jF-221" style="shape=partialRectangle;html=1;whiteSpace=wrap;connectable=0;fillColor=none;top=0;left=0;bottom=0;right=0;overflow=hidden;" vertex="1" parent="ddTO6_FposIUlyiPp3jF-218">
          <mxGeometry x="280" width="140" height="26" as="geometry" />
        </mxCell>
        <mxCell id="ddTO6_FposIUlyiPp3jF-222" style="shape=partialRectangle;html=1;whiteSpace=wrap;connectable=0;fillColor=none;top=0;left=0;bottom=0;right=0;overflow=hidden;" vertex="1" parent="ddTO6_FposIUlyiPp3jF-218">
          <mxGeometry x="420" width="140" height="26" as="geometry" />
        </mxCell>
        <mxCell id="ddTO6_FposIUlyiPp3jF-223" style="shape=partialRectangle;html=1;whiteSpace=wrap;connectable=0;fillColor=none;top=0;left=0;bottom=0;right=0;overflow=hidden;" vertex="1" parent="ddTO6_FposIUlyiPp3jF-218">
          <mxGeometry x="560" width="140" height="26" as="geometry" />
        </mxCell>
        <mxCell id="ddTO6_FposIUlyiPp3jF-224" value="" style="shape=partialRectangle;html=1;whiteSpace=wrap;collapsible=0;dropTarget=0;pointerEvents=0;fillColor=none;top=0;left=0;bottom=0;right=0;points=[[0,0.5],[1,0.5]];portConstraint=eastwest;" vertex="1" parent="ddTO6_FposIUlyiPp3jF-211">
          <mxGeometry y="53" width="700" height="27" as="geometry" />
        </mxCell>
        <mxCell id="ddTO6_FposIUlyiPp3jF-225" value="" style="shape=partialRectangle;html=1;whiteSpace=wrap;connectable=0;fillColor=none;top=0;left=0;bottom=0;right=0;overflow=hidden;" vertex="1" parent="ddTO6_FposIUlyiPp3jF-224">
          <mxGeometry width="140" height="27" as="geometry" />
        </mxCell>
        <mxCell id="ddTO6_FposIUlyiPp3jF-226" value="" style="shape=partialRectangle;html=1;whiteSpace=wrap;connectable=0;fillColor=none;top=0;left=0;bottom=0;right=0;overflow=hidden;" vertex="1" parent="ddTO6_FposIUlyiPp3jF-224">
          <mxGeometry x="140" width="140" height="27" as="geometry" />
        </mxCell>
        <mxCell id="ddTO6_FposIUlyiPp3jF-227" style="shape=partialRectangle;html=1;whiteSpace=wrap;connectable=0;fillColor=none;top=0;left=0;bottom=0;right=0;overflow=hidden;" vertex="1" parent="ddTO6_FposIUlyiPp3jF-224">
          <mxGeometry x="280" width="140" height="27" as="geometry" />
        </mxCell>
        <mxCell id="ddTO6_FposIUlyiPp3jF-228" style="shape=partialRectangle;html=1;whiteSpace=wrap;connectable=0;fillColor=none;top=0;left=0;bottom=0;right=0;overflow=hidden;" vertex="1" parent="ddTO6_FposIUlyiPp3jF-224">
          <mxGeometry x="420" width="140" height="27" as="geometry" />
        </mxCell>
        <mxCell id="ddTO6_FposIUlyiPp3jF-229" style="shape=partialRectangle;html=1;whiteSpace=wrap;connectable=0;fillColor=none;top=0;left=0;bottom=0;right=0;overflow=hidden;" vertex="1" parent="ddTO6_FposIUlyiPp3jF-224">
          <mxGeometry x="560" width="140" height="27" as="geometry" />
        </mxCell>
        <mxCell id="ddTO6_FposIUlyiPp3jF-230" style="shape=partialRectangle;html=1;whiteSpace=wrap;collapsible=0;dropTarget=0;pointerEvents=0;fillColor=none;top=0;left=0;bottom=0;right=0;points=[[0,0.5],[1,0.5]];portConstraint=eastwest;" vertex="1" parent="ddTO6_FposIUlyiPp3jF-211">
          <mxGeometry y="80" width="700" height="27" as="geometry" />
        </mxCell>
        <mxCell id="ddTO6_FposIUlyiPp3jF-231" style="shape=partialRectangle;html=1;whiteSpace=wrap;connectable=0;fillColor=none;top=0;left=0;bottom=0;right=0;overflow=hidden;" vertex="1" parent="ddTO6_FposIUlyiPp3jF-230">
          <mxGeometry width="140" height="27" as="geometry" />
        </mxCell>
        <mxCell id="ddTO6_FposIUlyiPp3jF-232" style="shape=partialRectangle;html=1;whiteSpace=wrap;connectable=0;fillColor=none;top=0;left=0;bottom=0;right=0;overflow=hidden;" vertex="1" parent="ddTO6_FposIUlyiPp3jF-230">
          <mxGeometry x="140" width="140" height="27" as="geometry" />
        </mxCell>
        <mxCell id="ddTO6_FposIUlyiPp3jF-233" style="shape=partialRectangle;html=1;whiteSpace=wrap;connectable=0;fillColor=none;top=0;left=0;bottom=0;right=0;overflow=hidden;" vertex="1" parent="ddTO6_FposIUlyiPp3jF-230">
          <mxGeometry x="280" width="140" height="27" as="geometry" />
        </mxCell>
        <mxCell id="ddTO6_FposIUlyiPp3jF-234" style="shape=partialRectangle;html=1;whiteSpace=wrap;connectable=0;fillColor=none;top=0;left=0;bottom=0;right=0;overflow=hidden;" vertex="1" parent="ddTO6_FposIUlyiPp3jF-230">
          <mxGeometry x="420" width="140" height="27" as="geometry" />
        </mxCell>
        <mxCell id="ddTO6_FposIUlyiPp3jF-235" style="shape=partialRectangle;html=1;whiteSpace=wrap;connectable=0;fillColor=none;top=0;left=0;bottom=0;right=0;overflow=hidden;" vertex="1" parent="ddTO6_FposIUlyiPp3jF-230">
          <mxGeometry x="560" width="140" height="27" as="geometry" />
        </mxCell>
        <mxCell id="ddTO6_FposIUlyiPp3jF-236" style="shape=partialRectangle;html=1;whiteSpace=wrap;collapsible=0;dropTarget=0;pointerEvents=0;fillColor=none;top=0;left=0;bottom=0;right=0;points=[[0,0.5],[1,0.5]];portConstraint=eastwest;" vertex="1" parent="ddTO6_FposIUlyiPp3jF-211">
          <mxGeometry y="107" width="700" height="26" as="geometry" />
        </mxCell>
        <mxCell id="ddTO6_FposIUlyiPp3jF-237" style="shape=partialRectangle;html=1;whiteSpace=wrap;connectable=0;fillColor=none;top=0;left=0;bottom=0;right=0;overflow=hidden;" vertex="1" parent="ddTO6_FposIUlyiPp3jF-236">
          <mxGeometry width="140" height="26" as="geometry" />
        </mxCell>
        <mxCell id="ddTO6_FposIUlyiPp3jF-238" style="shape=partialRectangle;html=1;whiteSpace=wrap;connectable=0;fillColor=none;top=0;left=0;bottom=0;right=0;overflow=hidden;" vertex="1" parent="ddTO6_FposIUlyiPp3jF-236">
          <mxGeometry x="140" width="140" height="26" as="geometry" />
        </mxCell>
        <mxCell id="ddTO6_FposIUlyiPp3jF-239" style="shape=partialRectangle;html=1;whiteSpace=wrap;connectable=0;fillColor=none;top=0;left=0;bottom=0;right=0;overflow=hidden;" vertex="1" parent="ddTO6_FposIUlyiPp3jF-236">
          <mxGeometry x="280" width="140" height="26" as="geometry" />
        </mxCell>
        <mxCell id="ddTO6_FposIUlyiPp3jF-240" style="shape=partialRectangle;html=1;whiteSpace=wrap;connectable=0;fillColor=none;top=0;left=0;bottom=0;right=0;overflow=hidden;" vertex="1" parent="ddTO6_FposIUlyiPp3jF-236">
          <mxGeometry x="420" width="140" height="26" as="geometry" />
        </mxCell>
        <mxCell id="ddTO6_FposIUlyiPp3jF-241" style="shape=partialRectangle;html=1;whiteSpace=wrap;connectable=0;fillColor=none;top=0;left=0;bottom=0;right=0;overflow=hidden;" vertex="1" parent="ddTO6_FposIUlyiPp3jF-236">
          <mxGeometry x="560" width="140" height="26" as="geometry" />
        </mxCell>
        <mxCell id="ddTO6_FposIUlyiPp3jF-242" style="shape=partialRectangle;html=1;whiteSpace=wrap;collapsible=0;dropTarget=0;pointerEvents=0;fillColor=none;top=0;left=0;bottom=0;right=0;points=[[0,0.5],[1,0.5]];portConstraint=eastwest;" vertex="1" parent="ddTO6_FposIUlyiPp3jF-211">
          <mxGeometry y="133" width="700" height="27" as="geometry" />
        </mxCell>
        <mxCell id="ddTO6_FposIUlyiPp3jF-243" style="shape=partialRectangle;html=1;whiteSpace=wrap;connectable=0;fillColor=none;top=0;left=0;bottom=0;right=0;overflow=hidden;" vertex="1" parent="ddTO6_FposIUlyiPp3jF-242">
          <mxGeometry width="140" height="27" as="geometry" />
        </mxCell>
        <mxCell id="ddTO6_FposIUlyiPp3jF-244" style="shape=partialRectangle;html=1;whiteSpace=wrap;connectable=0;fillColor=none;top=0;left=0;bottom=0;right=0;overflow=hidden;" vertex="1" parent="ddTO6_FposIUlyiPp3jF-242">
          <mxGeometry x="140" width="140" height="27" as="geometry" />
        </mxCell>
        <mxCell id="ddTO6_FposIUlyiPp3jF-245" style="shape=partialRectangle;html=1;whiteSpace=wrap;connectable=0;fillColor=none;top=0;left=0;bottom=0;right=0;overflow=hidden;" vertex="1" parent="ddTO6_FposIUlyiPp3jF-242">
          <mxGeometry x="280" width="140" height="27" as="geometry" />
        </mxCell>
        <mxCell id="ddTO6_FposIUlyiPp3jF-246" style="shape=partialRectangle;html=1;whiteSpace=wrap;connectable=0;fillColor=none;top=0;left=0;bottom=0;right=0;overflow=hidden;" vertex="1" parent="ddTO6_FposIUlyiPp3jF-242">
          <mxGeometry x="420" width="140" height="27" as="geometry" />
        </mxCell>
        <mxCell id="ddTO6_FposIUlyiPp3jF-247" style="shape=partialRectangle;html=1;whiteSpace=wrap;connectable=0;fillColor=none;top=0;left=0;bottom=0;right=0;overflow=hidden;" vertex="1" parent="ddTO6_FposIUlyiPp3jF-242">
          <mxGeometry x="560" width="140" height="27" as="geometry" />
        </mxCell>
        <mxCell id="ddTO6_FposIUlyiPp3jF-248" value="" style="shape=table;html=1;whiteSpace=wrap;startSize=0;container=1;collapsible=0;childLayout=tableLayout;strokeWidth=1;" vertex="1" parent="1">
          <mxGeometry x="830" y="2929" width="920" height="160" as="geometry" />
        </mxCell>
        <mxCell id="ddTO6_FposIUlyiPp3jF-249" value="" style="shape=partialRectangle;html=1;whiteSpace=wrap;collapsible=0;dropTarget=0;pointerEvents=0;fillColor=none;top=0;left=0;bottom=0;right=0;points=[[0,0.5],[1,0.5]];portConstraint=eastwest;" vertex="1" parent="ddTO6_FposIUlyiPp3jF-248">
          <mxGeometry width="920" height="27" as="geometry" />
        </mxCell>
        <mxCell id="ddTO6_FposIUlyiPp3jF-250" value="&lt;u&gt;&lt;b&gt;C_CPF&lt;/b&gt;&lt;/u&gt;" style="shape=partialRectangle;html=1;whiteSpace=wrap;connectable=0;fillColor=none;top=0;left=0;bottom=0;right=0;overflow=hidden;" vertex="1" parent="ddTO6_FposIUlyiPp3jF-249">
          <mxGeometry width="184" height="27" as="geometry" />
        </mxCell>
        <mxCell id="ddTO6_FposIUlyiPp3jF-251" value="&lt;b&gt;&lt;u&gt;NOME&lt;/u&gt;&lt;/b&gt;" style="shape=partialRectangle;html=1;whiteSpace=wrap;connectable=0;fillColor=none;top=0;left=0;bottom=0;right=0;overflow=hidden;" vertex="1" parent="ddTO6_FposIUlyiPp3jF-249">
          <mxGeometry x="184" width="184" height="27" as="geometry" />
        </mxCell>
        <mxCell id="ddTO6_FposIUlyiPp3jF-252" value="RUA" style="shape=partialRectangle;html=1;whiteSpace=wrap;connectable=0;fillColor=none;top=0;left=0;bottom=0;right=0;overflow=hidden;" vertex="1" parent="ddTO6_FposIUlyiPp3jF-249">
          <mxGeometry x="368" width="184" height="27" as="geometry" />
        </mxCell>
        <mxCell id="ddTO6_FposIUlyiPp3jF-253" value="QUADRA" style="shape=partialRectangle;html=1;whiteSpace=wrap;connectable=0;fillColor=none;top=0;left=0;bottom=0;right=0;overflow=hidden;" vertex="1" parent="ddTO6_FposIUlyiPp3jF-249">
          <mxGeometry x="552" width="184" height="27" as="geometry" />
        </mxCell>
        <mxCell id="ddTO6_FposIUlyiPp3jF-254" value="SETOR" style="shape=partialRectangle;html=1;whiteSpace=wrap;connectable=0;fillColor=none;top=0;left=0;bottom=0;right=0;overflow=hidden;" vertex="1" parent="ddTO6_FposIUlyiPp3jF-249">
          <mxGeometry x="736" width="184" height="27" as="geometry" />
        </mxCell>
        <mxCell id="ddTO6_FposIUlyiPp3jF-255" value="" style="shape=partialRectangle;html=1;whiteSpace=wrap;collapsible=0;dropTarget=0;pointerEvents=0;fillColor=none;top=0;left=0;bottom=0;right=0;points=[[0,0.5],[1,0.5]];portConstraint=eastwest;" vertex="1" parent="ddTO6_FposIUlyiPp3jF-248">
          <mxGeometry y="27" width="920" height="27" as="geometry" />
        </mxCell>
        <mxCell id="ddTO6_FposIUlyiPp3jF-256" value="" style="shape=partialRectangle;html=1;whiteSpace=wrap;connectable=0;fillColor=none;top=0;left=0;bottom=0;right=0;overflow=hidden;" vertex="1" parent="ddTO6_FposIUlyiPp3jF-255">
          <mxGeometry width="184" height="27" as="geometry" />
        </mxCell>
        <mxCell id="ddTO6_FposIUlyiPp3jF-257" value="" style="shape=partialRectangle;html=1;whiteSpace=wrap;connectable=0;fillColor=none;top=0;left=0;bottom=0;right=0;overflow=hidden;" vertex="1" parent="ddTO6_FposIUlyiPp3jF-255">
          <mxGeometry x="184" width="184" height="27" as="geometry" />
        </mxCell>
        <mxCell id="ddTO6_FposIUlyiPp3jF-258" value="" style="shape=partialRectangle;html=1;whiteSpace=wrap;connectable=0;fillColor=none;top=0;left=0;bottom=0;right=0;overflow=hidden;" vertex="1" parent="ddTO6_FposIUlyiPp3jF-255">
          <mxGeometry x="368" width="184" height="27" as="geometry" />
        </mxCell>
        <mxCell id="ddTO6_FposIUlyiPp3jF-259" style="shape=partialRectangle;html=1;whiteSpace=wrap;connectable=0;fillColor=none;top=0;left=0;bottom=0;right=0;overflow=hidden;" vertex="1" parent="ddTO6_FposIUlyiPp3jF-255">
          <mxGeometry x="552" width="184" height="27" as="geometry" />
        </mxCell>
        <mxCell id="ddTO6_FposIUlyiPp3jF-260" style="shape=partialRectangle;html=1;whiteSpace=wrap;connectable=0;fillColor=none;top=0;left=0;bottom=0;right=0;overflow=hidden;" vertex="1" parent="ddTO6_FposIUlyiPp3jF-255">
          <mxGeometry x="736" width="184" height="27" as="geometry" />
        </mxCell>
        <mxCell id="ddTO6_FposIUlyiPp3jF-261" value="" style="shape=partialRectangle;html=1;whiteSpace=wrap;collapsible=0;dropTarget=0;pointerEvents=0;fillColor=none;top=0;left=0;bottom=0;right=0;points=[[0,0.5],[1,0.5]];portConstraint=eastwest;" vertex="1" parent="ddTO6_FposIUlyiPp3jF-248">
          <mxGeometry y="54" width="920" height="26" as="geometry" />
        </mxCell>
        <mxCell id="ddTO6_FposIUlyiPp3jF-262" value="" style="shape=partialRectangle;html=1;whiteSpace=wrap;connectable=0;fillColor=none;top=0;left=0;bottom=0;right=0;overflow=hidden;" vertex="1" parent="ddTO6_FposIUlyiPp3jF-261">
          <mxGeometry width="184" height="26" as="geometry" />
        </mxCell>
        <mxCell id="ddTO6_FposIUlyiPp3jF-263" value="" style="shape=partialRectangle;html=1;whiteSpace=wrap;connectable=0;fillColor=none;top=0;left=0;bottom=0;right=0;overflow=hidden;" vertex="1" parent="ddTO6_FposIUlyiPp3jF-261">
          <mxGeometry x="184" width="184" height="26" as="geometry" />
        </mxCell>
        <mxCell id="ddTO6_FposIUlyiPp3jF-264" value="" style="shape=partialRectangle;html=1;whiteSpace=wrap;connectable=0;fillColor=none;top=0;left=0;bottom=0;right=0;overflow=hidden;" vertex="1" parent="ddTO6_FposIUlyiPp3jF-261">
          <mxGeometry x="368" width="184" height="26" as="geometry" />
        </mxCell>
        <mxCell id="ddTO6_FposIUlyiPp3jF-265" style="shape=partialRectangle;html=1;whiteSpace=wrap;connectable=0;fillColor=none;top=0;left=0;bottom=0;right=0;overflow=hidden;" vertex="1" parent="ddTO6_FposIUlyiPp3jF-261">
          <mxGeometry x="552" width="184" height="26" as="geometry" />
        </mxCell>
        <mxCell id="ddTO6_FposIUlyiPp3jF-266" style="shape=partialRectangle;html=1;whiteSpace=wrap;connectable=0;fillColor=none;top=0;left=0;bottom=0;right=0;overflow=hidden;" vertex="1" parent="ddTO6_FposIUlyiPp3jF-261">
          <mxGeometry x="736" width="184" height="26" as="geometry" />
        </mxCell>
        <mxCell id="ddTO6_FposIUlyiPp3jF-267" style="shape=partialRectangle;html=1;whiteSpace=wrap;collapsible=0;dropTarget=0;pointerEvents=0;fillColor=none;top=0;left=0;bottom=0;right=0;points=[[0,0.5],[1,0.5]];portConstraint=eastwest;" vertex="1" parent="ddTO6_FposIUlyiPp3jF-248">
          <mxGeometry y="80" width="920" height="27" as="geometry" />
        </mxCell>
        <mxCell id="ddTO6_FposIUlyiPp3jF-268" style="shape=partialRectangle;html=1;whiteSpace=wrap;connectable=0;fillColor=none;top=0;left=0;bottom=0;right=0;overflow=hidden;" vertex="1" parent="ddTO6_FposIUlyiPp3jF-267">
          <mxGeometry width="184" height="27" as="geometry" />
        </mxCell>
        <mxCell id="ddTO6_FposIUlyiPp3jF-269" style="shape=partialRectangle;html=1;whiteSpace=wrap;connectable=0;fillColor=none;top=0;left=0;bottom=0;right=0;overflow=hidden;" vertex="1" parent="ddTO6_FposIUlyiPp3jF-267">
          <mxGeometry x="184" width="184" height="27" as="geometry" />
        </mxCell>
        <mxCell id="ddTO6_FposIUlyiPp3jF-270" style="shape=partialRectangle;html=1;whiteSpace=wrap;connectable=0;fillColor=none;top=0;left=0;bottom=0;right=0;overflow=hidden;" vertex="1" parent="ddTO6_FposIUlyiPp3jF-267">
          <mxGeometry x="368" width="184" height="27" as="geometry" />
        </mxCell>
        <mxCell id="ddTO6_FposIUlyiPp3jF-271" style="shape=partialRectangle;html=1;whiteSpace=wrap;connectable=0;fillColor=none;top=0;left=0;bottom=0;right=0;overflow=hidden;" vertex="1" parent="ddTO6_FposIUlyiPp3jF-267">
          <mxGeometry x="552" width="184" height="27" as="geometry" />
        </mxCell>
        <mxCell id="ddTO6_FposIUlyiPp3jF-272" style="shape=partialRectangle;html=1;whiteSpace=wrap;connectable=0;fillColor=none;top=0;left=0;bottom=0;right=0;overflow=hidden;" vertex="1" parent="ddTO6_FposIUlyiPp3jF-267">
          <mxGeometry x="736" width="184" height="27" as="geometry" />
        </mxCell>
        <mxCell id="ddTO6_FposIUlyiPp3jF-273" style="shape=partialRectangle;html=1;whiteSpace=wrap;collapsible=0;dropTarget=0;pointerEvents=0;fillColor=none;top=0;left=0;bottom=0;right=0;points=[[0,0.5],[1,0.5]];portConstraint=eastwest;" vertex="1" parent="ddTO6_FposIUlyiPp3jF-248">
          <mxGeometry y="107" width="920" height="26" as="geometry" />
        </mxCell>
        <mxCell id="ddTO6_FposIUlyiPp3jF-274" style="shape=partialRectangle;html=1;whiteSpace=wrap;connectable=0;fillColor=none;top=0;left=0;bottom=0;right=0;overflow=hidden;" vertex="1" parent="ddTO6_FposIUlyiPp3jF-273">
          <mxGeometry width="184" height="26" as="geometry" />
        </mxCell>
        <mxCell id="ddTO6_FposIUlyiPp3jF-275" style="shape=partialRectangle;html=1;whiteSpace=wrap;connectable=0;fillColor=none;top=0;left=0;bottom=0;right=0;overflow=hidden;" vertex="1" parent="ddTO6_FposIUlyiPp3jF-273">
          <mxGeometry x="184" width="184" height="26" as="geometry" />
        </mxCell>
        <mxCell id="ddTO6_FposIUlyiPp3jF-276" style="shape=partialRectangle;html=1;whiteSpace=wrap;connectable=0;fillColor=none;top=0;left=0;bottom=0;right=0;overflow=hidden;" vertex="1" parent="ddTO6_FposIUlyiPp3jF-273">
          <mxGeometry x="368" width="184" height="26" as="geometry" />
        </mxCell>
        <mxCell id="ddTO6_FposIUlyiPp3jF-277" style="shape=partialRectangle;html=1;whiteSpace=wrap;connectable=0;fillColor=none;top=0;left=0;bottom=0;right=0;overflow=hidden;" vertex="1" parent="ddTO6_FposIUlyiPp3jF-273">
          <mxGeometry x="552" width="184" height="26" as="geometry" />
        </mxCell>
        <mxCell id="ddTO6_FposIUlyiPp3jF-278" style="shape=partialRectangle;html=1;whiteSpace=wrap;connectable=0;fillColor=none;top=0;left=0;bottom=0;right=0;overflow=hidden;" vertex="1" parent="ddTO6_FposIUlyiPp3jF-273">
          <mxGeometry x="736" width="184" height="26" as="geometry" />
        </mxCell>
        <mxCell id="ddTO6_FposIUlyiPp3jF-279" style="shape=partialRectangle;html=1;whiteSpace=wrap;collapsible=0;dropTarget=0;pointerEvents=0;fillColor=none;top=0;left=0;bottom=0;right=0;points=[[0,0.5],[1,0.5]];portConstraint=eastwest;" vertex="1" parent="ddTO6_FposIUlyiPp3jF-248">
          <mxGeometry y="133" width="920" height="27" as="geometry" />
        </mxCell>
        <mxCell id="ddTO6_FposIUlyiPp3jF-280" style="shape=partialRectangle;html=1;whiteSpace=wrap;connectable=0;fillColor=none;top=0;left=0;bottom=0;right=0;overflow=hidden;" vertex="1" parent="ddTO6_FposIUlyiPp3jF-279">
          <mxGeometry width="184" height="27" as="geometry" />
        </mxCell>
        <mxCell id="ddTO6_FposIUlyiPp3jF-281" style="shape=partialRectangle;html=1;whiteSpace=wrap;connectable=0;fillColor=none;top=0;left=0;bottom=0;right=0;overflow=hidden;" vertex="1" parent="ddTO6_FposIUlyiPp3jF-279">
          <mxGeometry x="184" width="184" height="27" as="geometry" />
        </mxCell>
        <mxCell id="ddTO6_FposIUlyiPp3jF-282" style="shape=partialRectangle;html=1;whiteSpace=wrap;connectable=0;fillColor=none;top=0;left=0;bottom=0;right=0;overflow=hidden;" vertex="1" parent="ddTO6_FposIUlyiPp3jF-279">
          <mxGeometry x="368" width="184" height="27" as="geometry" />
        </mxCell>
        <mxCell id="ddTO6_FposIUlyiPp3jF-283" style="shape=partialRectangle;html=1;whiteSpace=wrap;connectable=0;fillColor=none;top=0;left=0;bottom=0;right=0;overflow=hidden;" vertex="1" parent="ddTO6_FposIUlyiPp3jF-279">
          <mxGeometry x="552" width="184" height="27" as="geometry" />
        </mxCell>
        <mxCell id="ddTO6_FposIUlyiPp3jF-284" style="shape=partialRectangle;html=1;whiteSpace=wrap;connectable=0;fillColor=none;top=0;left=0;bottom=0;right=0;overflow=hidden;" vertex="1" parent="ddTO6_FposIUlyiPp3jF-279">
          <mxGeometry x="736" width="184" height="27" as="geometry" />
        </mxCell>
        <mxCell id="ddTO6_FposIUlyiPp3jF-285" value="Imovel" style="text;strokeColor=none;fillColor=none;html=1;fontSize=24;fontStyle=1;verticalAlign=middle;align=center;" vertex="1" parent="1">
          <mxGeometry x="830" y="2899" width="100" height="30" as="geometry" />
        </mxCell>
        <mxCell id="ddTO6_FposIUlyiPp3jF-286" value="" style="endArrow=classic;html=1;exitX=0;exitY=0.5;exitDx=0;exitDy=0;entryX=0;entryY=0.265;entryDx=0;entryDy=0;entryPerimeter=0;" edge="1" parent="1" source="ddTO6_FposIUlyiPp3jF-149" target="ddTO6_FposIUlyiPp3jF-43">
          <mxGeometry width="50" height="50" relative="1" as="geometry">
            <mxPoint x="120" y="620" as="sourcePoint" />
            <mxPoint x="120" y="370" as="targetPoint" />
            <Array as="points">
              <mxPoint x="120" y="854" />
              <mxPoint x="120" y="377" />
            </Array>
          </mxGeometry>
        </mxCell>
        <mxCell id="ddTO6_FposIUlyiPp3jF-287" value="Secretaria" style="text;strokeColor=none;fillColor=none;html=1;fontSize=24;fontStyle=1;verticalAlign=middle;align=center;" vertex="1" parent="1">
          <mxGeometry x="156" y="560" width="124" height="20" as="geometry" />
        </mxCell>
        <mxCell id="ddTO6_FposIUlyiPp3jF-288" value="Corretor" style="text;strokeColor=none;fillColor=none;html=1;fontSize=24;fontStyle=1;verticalAlign=middle;align=center;" vertex="1" parent="1">
          <mxGeometry x="480" y="560" width="100" height="20" as="geometry" />
        </mxCell>
        <mxCell id="ddTO6_FposIUlyiPp3jF-289" value="" style="shape=table;html=1;whiteSpace=wrap;startSize=0;container=1;collapsible=0;childLayout=tableLayout;fontStyle=5" vertex="1" parent="1">
          <mxGeometry x="160" y="600" width="230" height="80" as="geometry" />
        </mxCell>
        <mxCell id="ddTO6_FposIUlyiPp3jF-290" value="" style="shape=partialRectangle;html=1;whiteSpace=wrap;collapsible=0;dropTarget=0;pointerEvents=0;fillColor=none;top=0;left=0;bottom=0;right=0;points=[[0,0.5],[1,0.5]];portConstraint=eastwest;" vertex="1" parent="ddTO6_FposIUlyiPp3jF-289">
          <mxGeometry width="230" height="27" as="geometry" />
        </mxCell>
        <mxCell id="ddTO6_FposIUlyiPp3jF-291" value="&lt;b&gt;&lt;u&gt;CPF&lt;/u&gt;&lt;/b&gt;" style="shape=partialRectangle;html=1;whiteSpace=wrap;connectable=0;fillColor=none;top=0;left=0;bottom=0;right=0;overflow=hidden;" vertex="1" parent="ddTO6_FposIUlyiPp3jF-290">
          <mxGeometry width="115" height="27" as="geometry" />
        </mxCell>
        <mxCell id="ddTO6_FposIUlyiPp3jF-292" value="Velocidade_digitacao" style="shape=partialRectangle;html=1;whiteSpace=wrap;connectable=0;fillColor=none;top=0;left=0;bottom=0;right=0;overflow=hidden;" vertex="1" parent="ddTO6_FposIUlyiPp3jF-290">
          <mxGeometry x="115" width="115" height="27" as="geometry" />
        </mxCell>
        <mxCell id="ddTO6_FposIUlyiPp3jF-294" value="" style="shape=partialRectangle;html=1;whiteSpace=wrap;collapsible=0;dropTarget=0;pointerEvents=0;fillColor=none;top=0;left=0;bottom=0;right=0;points=[[0,0.5],[1,0.5]];portConstraint=eastwest;" vertex="1" parent="ddTO6_FposIUlyiPp3jF-289">
          <mxGeometry y="27" width="230" height="26" as="geometry" />
        </mxCell>
        <mxCell id="ddTO6_FposIUlyiPp3jF-295" value="" style="shape=partialRectangle;html=1;whiteSpace=wrap;connectable=0;fillColor=none;top=0;left=0;bottom=0;right=0;overflow=hidden;" vertex="1" parent="ddTO6_FposIUlyiPp3jF-294">
          <mxGeometry width="115" height="26" as="geometry" />
        </mxCell>
        <mxCell id="ddTO6_FposIUlyiPp3jF-296" value="" style="shape=partialRectangle;html=1;whiteSpace=wrap;connectable=0;fillColor=none;top=0;left=0;bottom=0;right=0;overflow=hidden;" vertex="1" parent="ddTO6_FposIUlyiPp3jF-294">
          <mxGeometry x="115" width="115" height="26" as="geometry" />
        </mxCell>
        <mxCell id="ddTO6_FposIUlyiPp3jF-298" value="" style="shape=partialRectangle;html=1;whiteSpace=wrap;collapsible=0;dropTarget=0;pointerEvents=0;fillColor=none;top=0;left=0;bottom=0;right=0;points=[[0,0.5],[1,0.5]];portConstraint=eastwest;" vertex="1" parent="ddTO6_FposIUlyiPp3jF-289">
          <mxGeometry y="53" width="230" height="27" as="geometry" />
        </mxCell>
        <mxCell id="ddTO6_FposIUlyiPp3jF-299" value="" style="shape=partialRectangle;html=1;whiteSpace=wrap;connectable=0;fillColor=none;top=0;left=0;bottom=0;right=0;overflow=hidden;" vertex="1" parent="ddTO6_FposIUlyiPp3jF-298">
          <mxGeometry width="115" height="27" as="geometry" />
        </mxCell>
        <mxCell id="ddTO6_FposIUlyiPp3jF-300" value="" style="shape=partialRectangle;html=1;whiteSpace=wrap;connectable=0;fillColor=none;top=0;left=0;bottom=0;right=0;overflow=hidden;" vertex="1" parent="ddTO6_FposIUlyiPp3jF-298">
          <mxGeometry x="115" width="115" height="27" as="geometry" />
        </mxCell>
        <mxCell id="ddTO6_FposIUlyiPp3jF-302" value="" style="shape=table;html=1;whiteSpace=wrap;startSize=0;container=1;collapsible=0;childLayout=tableLayout;" vertex="1" parent="1">
          <mxGeometry x="480" y="600" width="230" height="80" as="geometry" />
        </mxCell>
        <mxCell id="ddTO6_FposIUlyiPp3jF-303" value="" style="shape=partialRectangle;html=1;whiteSpace=wrap;collapsible=0;dropTarget=0;pointerEvents=0;fillColor=none;top=0;left=0;bottom=0;right=0;points=[[0,0.5],[1,0.5]];portConstraint=eastwest;" vertex="1" parent="ddTO6_FposIUlyiPp3jF-302">
          <mxGeometry width="230" height="27" as="geometry" />
        </mxCell>
        <mxCell id="ddTO6_FposIUlyiPp3jF-304" value="&lt;b&gt;&lt;u&gt;CPF&lt;/u&gt;&lt;/b&gt;" style="shape=partialRectangle;html=1;whiteSpace=wrap;connectable=0;fillColor=none;top=0;left=0;bottom=0;right=0;overflow=hidden;" vertex="1" parent="ddTO6_FposIUlyiPp3jF-303">
          <mxGeometry width="80" height="27" as="geometry" />
        </mxCell>
        <mxCell id="ddTO6_FposIUlyiPp3jF-305" value="Regiao_Atendimento" style="shape=partialRectangle;html=1;whiteSpace=wrap;connectable=0;fillColor=none;top=0;left=0;bottom=0;right=0;overflow=hidden;" vertex="1" parent="ddTO6_FposIUlyiPp3jF-303">
          <mxGeometry x="80" width="150" height="27" as="geometry" />
        </mxCell>
        <mxCell id="ddTO6_FposIUlyiPp3jF-306" value="" style="shape=partialRectangle;html=1;whiteSpace=wrap;collapsible=0;dropTarget=0;pointerEvents=0;fillColor=none;top=0;left=0;bottom=0;right=0;points=[[0,0.5],[1,0.5]];portConstraint=eastwest;" vertex="1" parent="ddTO6_FposIUlyiPp3jF-302">
          <mxGeometry y="27" width="230" height="26" as="geometry" />
        </mxCell>
        <mxCell id="ddTO6_FposIUlyiPp3jF-307" value="" style="shape=partialRectangle;html=1;whiteSpace=wrap;connectable=0;fillColor=none;top=0;left=0;bottom=0;right=0;overflow=hidden;" vertex="1" parent="ddTO6_FposIUlyiPp3jF-306">
          <mxGeometry width="80" height="26" as="geometry" />
        </mxCell>
        <mxCell id="ddTO6_FposIUlyiPp3jF-308" value="" style="shape=partialRectangle;html=1;whiteSpace=wrap;connectable=0;fillColor=none;top=0;left=0;bottom=0;right=0;overflow=hidden;" vertex="1" parent="ddTO6_FposIUlyiPp3jF-306">
          <mxGeometry x="80" width="150" height="26" as="geometry" />
        </mxCell>
        <mxCell id="ddTO6_FposIUlyiPp3jF-309" value="" style="shape=partialRectangle;html=1;whiteSpace=wrap;collapsible=0;dropTarget=0;pointerEvents=0;fillColor=none;top=0;left=0;bottom=0;right=0;points=[[0,0.5],[1,0.5]];portConstraint=eastwest;" vertex="1" parent="ddTO6_FposIUlyiPp3jF-302">
          <mxGeometry y="53" width="230" height="27" as="geometry" />
        </mxCell>
        <mxCell id="ddTO6_FposIUlyiPp3jF-310" value="" style="shape=partialRectangle;html=1;whiteSpace=wrap;connectable=0;fillColor=none;top=0;left=0;bottom=0;right=0;overflow=hidden;" vertex="1" parent="ddTO6_FposIUlyiPp3jF-309">
          <mxGeometry width="80" height="27" as="geometry" />
        </mxCell>
        <mxCell id="ddTO6_FposIUlyiPp3jF-311" value="" style="shape=partialRectangle;html=1;whiteSpace=wrap;connectable=0;fillColor=none;top=0;left=0;bottom=0;right=0;overflow=hidden;" vertex="1" parent="ddTO6_FposIUlyiPp3jF-309">
          <mxGeometry x="80" width="150" height="27" as="geometry" />
        </mxCell>
        <mxCell id="ddTO6_FposIUlyiPp3jF-314" value="" style="endArrow=classic;html=1;exitX=0;exitY=0.5;exitDx=0;exitDy=0;entryX=0;entryY=0.5;entryDx=0;entryDy=0;" edge="1" parent="1" source="ddTO6_FposIUlyiPp3jF-290" target="ddTO6_FposIUlyiPp3jF-43">
          <mxGeometry width="50" height="50" relative="1" as="geometry">
            <mxPoint x="120" y="650" as="sourcePoint" />
            <mxPoint x="130" y="380" as="targetPoint" />
            <Array as="points">
              <mxPoint x="130" y="613" />
              <mxPoint x="130" y="384" />
            </Array>
          </mxGeometry>
        </mxCell>
        <mxCell id="ddTO6_FposIUlyiPp3jF-316" value="" style="endArrow=classic;html=1;exitX=0;exitY=0.5;exitDx=0;exitDy=0;entryX=0;entryY=0.703;entryDx=0;entryDy=0;entryPerimeter=0;" edge="1" parent="1" source="ddTO6_FposIUlyiPp3jF-303" target="ddTO6_FposIUlyiPp3jF-43">
          <mxGeometry width="50" height="50" relative="1" as="geometry">
            <mxPoint x="430" y="610" as="sourcePoint" />
            <mxPoint x="140" y="390" as="targetPoint" />
            <Array as="points">
              <mxPoint x="440" y="614" />
              <mxPoint x="440" y="550" />
              <mxPoint x="140" y="550" />
              <mxPoint x="140" y="389" />
            </Array>
          </mxGeometry>
        </mxCell>
        <mxCell id="ddTO6_FposIUlyiPp3jF-317" value="Proprietario" style="text;strokeColor=none;fillColor=none;html=1;fontSize=24;fontStyle=1;verticalAlign=middle;align=center;" vertex="1" parent="1">
          <mxGeometry x="120" y="1440" width="140" height="20" as="geometry" />
        </mxCell>
        <mxCell id="ddTO6_FposIUlyiPp3jF-318" value="" style="shape=table;html=1;whiteSpace=wrap;startSize=0;container=1;collapsible=0;childLayout=tableLayout;" vertex="1" parent="1">
          <mxGeometry x="120" y="1480" width="190" height="80" as="geometry" />
        </mxCell>
        <mxCell id="ddTO6_FposIUlyiPp3jF-319" value="" style="shape=partialRectangle;html=1;whiteSpace=wrap;collapsible=0;dropTarget=0;pointerEvents=0;fillColor=none;top=0;left=0;bottom=0;right=0;points=[[0,0.5],[1,0.5]];portConstraint=eastwest;" vertex="1" parent="ddTO6_FposIUlyiPp3jF-318">
          <mxGeometry width="190" height="27" as="geometry" />
        </mxCell>
        <mxCell id="ddTO6_FposIUlyiPp3jF-320" value="CPF" style="shape=partialRectangle;html=1;whiteSpace=wrap;connectable=0;fillColor=none;top=0;left=0;bottom=0;right=0;overflow=hidden;fontStyle=5" vertex="1" parent="ddTO6_FposIUlyiPp3jF-319">
          <mxGeometry width="95" height="27" as="geometry" />
        </mxCell>
        <mxCell id="ddTO6_FposIUlyiPp3jF-321" value="Tipo_Proprietario" style="shape=partialRectangle;html=1;whiteSpace=wrap;connectable=0;fillColor=none;top=0;left=0;bottom=0;right=0;overflow=hidden;" vertex="1" parent="ddTO6_FposIUlyiPp3jF-319">
          <mxGeometry x="95" width="95" height="27" as="geometry" />
        </mxCell>
        <mxCell id="ddTO6_FposIUlyiPp3jF-323" value="" style="shape=partialRectangle;html=1;whiteSpace=wrap;collapsible=0;dropTarget=0;pointerEvents=0;fillColor=none;top=0;left=0;bottom=0;right=0;points=[[0,0.5],[1,0.5]];portConstraint=eastwest;" vertex="1" parent="ddTO6_FposIUlyiPp3jF-318">
          <mxGeometry y="27" width="190" height="26" as="geometry" />
        </mxCell>
        <mxCell id="ddTO6_FposIUlyiPp3jF-324" value="" style="shape=partialRectangle;html=1;whiteSpace=wrap;connectable=0;fillColor=none;top=0;left=0;bottom=0;right=0;overflow=hidden;" vertex="1" parent="ddTO6_FposIUlyiPp3jF-323">
          <mxGeometry width="95" height="26" as="geometry" />
        </mxCell>
        <mxCell id="ddTO6_FposIUlyiPp3jF-325" value="" style="shape=partialRectangle;html=1;whiteSpace=wrap;connectable=0;fillColor=none;top=0;left=0;bottom=0;right=0;overflow=hidden;" vertex="1" parent="ddTO6_FposIUlyiPp3jF-323">
          <mxGeometry x="95" width="95" height="26" as="geometry" />
        </mxCell>
        <mxCell id="ddTO6_FposIUlyiPp3jF-327" value="" style="shape=partialRectangle;html=1;whiteSpace=wrap;collapsible=0;dropTarget=0;pointerEvents=0;fillColor=none;top=0;left=0;bottom=0;right=0;points=[[0,0.5],[1,0.5]];portConstraint=eastwest;" vertex="1" parent="ddTO6_FposIUlyiPp3jF-318">
          <mxGeometry y="53" width="190" height="27" as="geometry" />
        </mxCell>
        <mxCell id="ddTO6_FposIUlyiPp3jF-328" value="" style="shape=partialRectangle;html=1;whiteSpace=wrap;connectable=0;fillColor=none;top=0;left=0;bottom=0;right=0;overflow=hidden;" vertex="1" parent="ddTO6_FposIUlyiPp3jF-327">
          <mxGeometry width="95" height="27" as="geometry" />
        </mxCell>
        <mxCell id="ddTO6_FposIUlyiPp3jF-329" value="" style="shape=partialRectangle;html=1;whiteSpace=wrap;connectable=0;fillColor=none;top=0;left=0;bottom=0;right=0;overflow=hidden;" vertex="1" parent="ddTO6_FposIUlyiPp3jF-327">
          <mxGeometry x="95" width="95" height="27" as="geometry" />
        </mxCell>
        <mxCell id="ddTO6_FposIUlyiPp3jF-331" value="" style="endArrow=classic;html=1;exitX=0;exitY=0.5;exitDx=0;exitDy=0;entryX=0;entryY=0.5;entryDx=0;entryDy=0;" edge="1" parent="1" source="ddTO6_FposIUlyiPp3jF-319" target="ddTO6_FposIUlyiPp3jF-212">
          <mxGeometry width="50" height="50" relative="1" as="geometry">
            <mxPoint x="70" y="1510" as="sourcePoint" />
            <mxPoint x="90" y="1220" as="targetPoint" />
            <Array as="points">
              <mxPoint x="90" y="1494" />
              <mxPoint x="90" y="1223" />
            </Array>
          </mxGeometry>
        </mxCell>
        <mxCell id="ddTO6_FposIUlyiPp3jF-338" value="" style="endArrow=classic;html=1;exitX=0.015;exitY=0;exitDx=0;exitDy=0;exitPerimeter=0;entryX=1;entryY=0.5;entryDx=0;entryDy=0;" edge="1" parent="1" source="ddTO6_FposIUlyiPp3jF-43" target="ddTO6_FposIUlyiPp3jF-3">
          <mxGeometry width="50" height="50" relative="1" as="geometry">
            <mxPoint x="120" y="380" as="sourcePoint" />
            <mxPoint x="860" y="90" as="targetPoint" />
            <Array as="points">
              <mxPoint x="170" y="330" />
              <mxPoint x="860" y="330" />
              <mxPoint x="860" y="104" />
            </Array>
          </mxGeometry>
        </mxCell>
        <mxCell id="ddTO6_FposIUlyiPp3jF-339" value="FK" style="text;html=1;strokeColor=none;fillColor=none;align=center;verticalAlign=middle;whiteSpace=wrap;rounded=0;" vertex="1" parent="1">
          <mxGeometry x="760" y="80" width="16" height="10" as="geometry" />
        </mxCell>
      </root>
    </mxGraphModel>
  </diagram>
</mxfile>
